<svg width="1600" height="900" viewBox="0 0 1600 900" fill="none" xmlns="http://www.w3.org/2000/svg">
  <defs>
    <linearGradient id="bg" x1="120" y1="80" x2="1480" y2="820" gradientUnits="userSpaceOnUse">
      <stop offset="0" stop-color="#F8EDE3"/>
      <stop offset="0.52" stop-color="#E8F2F3"/>
      <stop offset="1" stop-color="#D6E3F2"/>
    </linearGradient>
    <linearGradient id="card" x1="0" y1="0" x2="1" y2="1">
      <stop offset="0" stop-color="#FFFFFF"/>
      <stop offset="1" stop-color="#F4F7FB"/>
    </linearGradient>
    <linearGradient id="route" x1="0" y1="0" x2="1" y2="1">
      <stop offset="0" stop-color="#F97316"/>
      <stop offset="1" stop-color="#0F766E"/>
    </linearGradient>
    <filter id="shadow" x="-20%" y="-20%" width="140%" height="140%">
      <feDropShadow dx="0" dy="18" stdDeviation="20" flood-color="#25324A" flood-opacity="0.12"/>
    </filter>
  </defs>

  <rect width="1600" height="900" fill="url(#bg)"/>
  <circle cx="1330" cy="140" r="180" fill="#FFF7ED" opacity="0.85"/>
  <circle cx="210" cy="760" r="210" fill="#E0F2FE" opacity="0.65"/>
  <circle cx="1240" cy="690" r="120" fill="#DCFCE7" opacity="0.75"/>

  <g opacity="0.16">
    <path d="M325 335C415 260 541 228 654 256C763 283 857 347 966 344C1074 341 1148 290 1240 270" stroke="#274060" stroke-width="10" stroke-linecap="round"/>
    <path d="M357 420C454 351 572 331 656 352C742 373 836 424 934 432C1030 439 1123 405 1223 368" stroke="#274060" stroke-width="10" stroke-linecap="round"/>
  </g>

  <g filter="url(#shadow)">
    <rect x="148" y="112" width="530" height="228" rx="34" fill="url(#card)"/>
  </g>
  <text x="194" y="170" fill="#0F172A" font-family="Georgia, 'Times New Roman', serif" font-size="62" font-weight="700">
    Summer 2026
  </text>
  <text x="194" y="232" fill="#0F172A" font-family="Georgia, 'Times New Roman', serif" font-size="62" font-weight="700">
    Eastern Europe Picks
  </text>
  <text x="194" y="283" fill="#475569" font-family="Arial, Helvetica, sans-serif" font-size="28">
    Flight and hotel balance for US travelers
  </text>

  <g>
    <path d="M380 504C514 426 623 412 754 447C851 474 929 543 1015 548C1090 553 1159 519 1245 445" stroke="url(#route)" stroke-width="12" stroke-linecap="round" stroke-dasharray="14 20"/>
    <circle cx="382" cy="503" r="14" fill="#F97316"/>
    <circle cx="1245" cy="445" r="14" fill="#0F766E"/>
    <path d="M801 464L832 475L815 487L829 512L809 519L796 493L770 501L778 481L750 468L777 458L776 431L794 450L819 436L816 458L840 463L801 464Z" fill="#0F172A"/>
  </g>

  <g filter="url(#shadow)">
    <rect x="186" y="590" width="248" height="170" rx="28" fill="url(#card)"/>
    <rect x="470" y="456" width="248" height="170" rx="28" fill="url(#card)"/>
    <rect x="792" y="590" width="248" height="170" rx="28" fill="url(#card)"/>
    <rect x="1098" y="376" width="248" height="170" rx="28" fill="url(#card)"/>
  </g>

  <g>
    <text x="220" y="646" fill="#0F172A" font-family="Arial, Helvetica, sans-serif" font-size="34" font-weight="700">Prague</text>
    <text x="220" y="690" fill="#475569" font-family="Arial, Helvetica, sans-serif" font-size="24">Easiest first pick</text>
    <rect x="220" y="714" width="108" height="14" rx="7" fill="#F59E0B"/>
    <rect x="220" y="740" width="156" height="12" rx="6" fill="#CBD5E1"/>
  </g>

  <g>
    <text x="504" y="512" fill="#0F172A" font-family="Arial, Helvetica, sans-serif" font-size="34" font-weight="700">Krakow</text>
    <text x="504" y="556" fill="#475569" font-family="Arial, Helvetica, sans-serif" font-size="24">Hotel value edge</text>
    <rect x="504" y="580" width="132" height="14" rx="7" fill="#0EA5E9"/>
    <rect x="504" y="606" width="144" height="12" rx="6" fill="#CBD5E1"/>
  </g>

  <g>
    <text x="826" y="646" fill="#0F172A" font-family="Arial, Helvetica, sans-serif" font-size="34" font-weight="700">Budapest</text>
    <text x="826" y="690" fill="#475569" font-family="Arial, Helvetica, sans-serif" font-size="24">High-impact city break</text>
    <rect x="826" y="714" width="164" height="14" rx="7" fill="#10B981"/>
    <rect x="826" y="740" width="130" height="12" rx="6" fill="#CBD5E1"/>
  </g>

  <g>
    <text x="1132" y="432" fill="#0F172A" font-family="Arial, Helvetica, sans-serif" font-size="34" font-weight="700">Sofia</text>
    <text x="1132" y="476" fill="#475569" font-family="Arial, Helvetica, sans-serif" font-size="24">Lower city pressure</text>
    <rect x="1132" y="500" width="148" height="14" rx="7" fill="#EF4444"/>
    <rect x="1132" y="526" width="120" height="12" rx="6" fill="#CBD5E1"/>
  </g>

  <g opacity="0.9">
    <rect x="1192" y="136" width="200" height="108" rx="24" fill="#0F172A"/>
    <text x="1230" y="184" fill="#F8FAFC" font-family="Arial, Helvetica, sans-serif" font-size="24" font-weight="700">Trend angle</text>
    <text x="1230" y="220" fill="#CBD5E1" font-family="Arial, Helvetica, sans-serif" font-size="22">Value over classics</text>
  </g>
</svg>
