<svg width="1600" height="900" viewBox="0 0 1600 900" fill="none" xmlns="http://www.w3.org/2000/svg">
  <defs>
    <linearGradient id="bg" x1="132" y1="68" x2="1450" y2="836" gradientUnits="userSpaceOnUse">
      <stop offset="0" stop-color="#FFF7ED"/>
      <stop offset="0.48" stop-color="#EFF6FF"/>
      <stop offset="1" stop-color="#ECFDF5"/>
    </linearGradient>
    <linearGradient id="panel" x1="0" y1="0" x2="1" y2="1">
      <stop offset="0" stop-color="#FFFFFF"/>
      <stop offset="1" stop-color="#F8FAFC"/>
    </linearGradient>
    <linearGradient id="accent" x1="0" y1="0" x2="1" y2="1">
      <stop offset="0" stop-color="#EA580C"/>
      <stop offset="0.52" stop-color="#0F766E"/>
      <stop offset="1" stop-color="#2563EB"/>
    </linearGradient>
    <filter id="shadow" x="-20%" y="-20%" width="140%" height="140%">
      <feDropShadow dx="0" dy="22" stdDeviation="24" flood-color="#0F172A" flood-opacity="0.16"/>
    </filter>
  </defs>

  <rect width="1600" height="900" fill="url(#bg)"/>
  <circle cx="1340" cy="148" r="166" fill="#FDE68A" opacity="0.34"/>
  <circle cx="192" cy="760" r="210" fill="#BFDBFE" opacity="0.34"/>
  <circle cx="1280" cy="754" r="180" fill="#A7F3D0" opacity="0.28"/>

  <g opacity="0.18">
    <path d="M188 322C330 250 482 236 618 268C726 292 826 350 938 370C1076 394 1208 356 1384 242" stroke="#334155" stroke-width="10" stroke-linecap="round"/>
    <path d="M212 412C372 334 528 330 670 366C776 392 870 438 982 452C1114 468 1244 434 1380 352" stroke="#334155" stroke-width="10" stroke-linecap="round"/>
  </g>

  <g filter="url(#shadow)">
    <rect x="108" y="92" width="730" height="258" rx="38" fill="url(#panel)"/>
  </g>
  <text x="164" y="176" fill="#0F172A" font-family="Georgia, 'Times New Roman', serif" font-size="58" font-weight="700">
    Europe Entry 2026
  </text>
  <text x="164" y="240" fill="#0F172A" font-family="Georgia, 'Times New Roman', serif" font-size="58" font-weight="700">
    ETIAS, EES, First-Night Hotel
  </text>
  <text x="164" y="294" fill="#475569" font-family="Arial, Helvetica, sans-serif" font-size="28">
    Short transatlantic trips now reward cleaner arrival flow
  </text>

  <g filter="url(#shadow)">
    <rect x="1050" y="110" width="372" height="180" rx="30" fill="#0F172A"/>
  </g>
  <text x="1094" y="172" fill="#F8FAFC" font-family="Arial, Helvetica, sans-serif" font-size="32" font-weight="700">
    20 June 2026
  </text>
  <text x="1094" y="218" fill="#CBD5E1" font-family="Arial, Helvetica, sans-serif" font-size="26">
    ETIAS not live yet
  </text>
  <text x="1094" y="254" fill="#86EFAC" font-family="Arial, Helvetica, sans-serif" font-size="26" font-weight="700">
    EES fully active
  </text>

  <g filter="url(#shadow)">
    <rect x="132" y="500" width="420" height="218" rx="34" fill="url(#panel)"/>
    <rect x="592" y="424" width="430" height="294" rx="34" fill="url(#panel)"/>
    <rect x="1070" y="500" width="388" height="218" rx="34" fill="url(#panel)"/>
  </g>

  <g>
    <rect x="186" y="548" width="144" height="112" rx="18" fill="#F97316" opacity="0.14"/>
    <rect x="202" y="564" width="112" height="80" rx="14" stroke="#EA580C" stroke-width="8"/>
    <path d="M226 586H290" stroke="#EA580C" stroke-width="8" stroke-linecap="round"/>
    <path d="M226 610H272" stroke="#EA580C" stroke-width="8" stroke-linecap="round"/>
    <text x="354" y="580" fill="#0F172A" font-family="Arial, Helvetica, sans-serif" font-size="32" font-weight="700">ETIAS</text>
    <text x="354" y="622" fill="#475569" font-family="Arial, Helvetica, sans-serif" font-size="24">Not required today</text>
    <text x="354" y="656" fill="#475569" font-family="Arial, Helvetica, sans-serif" font-size="24">for US short stays</text>
  </g>

  <g>
    <rect x="652" y="478" width="164" height="198" rx="20" fill="#DBEAFE"/>
    <rect x="686" y="514" width="40" height="40" rx="8" fill="#2563EB"/>
    <rect x="742" y="514" width="40" height="40" rx="8" fill="#2563EB"/>
    <rect x="686" y="570" width="40" height="40" rx="8" fill="#2563EB"/>
    <rect x="742" y="570" width="40" height="40" rx="8" fill="#2563EB"/>
    <rect x="830" y="486" width="126" height="190" rx="22" fill="#ECFCCB"/>
    <rect x="860" y="520" width="66" height="94" rx="10" fill="#0F766E"/>
    <path d="M760 390C830 352 906 354 980 392" stroke="url(#accent)" stroke-width="12" stroke-linecap="round" stroke-dasharray="14 16"/>
    <circle cx="760" cy="390" r="12" fill="#EA580C"/>
    <circle cx="980" cy="392" r="12" fill="#2563EB"/>
    <path d="M840 370L864 380L854 398L868 416L848 424L838 408L816 414L824 396L802 384L824 378L822 354L836 366L858 356L856 374L878 376L840 370Z" fill="#0F172A"/>
    <text x="652" y="636" fill="#0F172A" font-family="Arial, Helvetica, sans-serif" font-size="32" font-weight="700">Arrival + hotel logic</text>
    <text x="652" y="674" fill="#475569" font-family="Arial, Helvetica, sans-serif" font-size="24">Choose easier first-night flow</text>
  </g>

  <g>
    <circle cx="1148" cy="574" r="48" fill="#D1FAE5"/>
    <path d="M1124 574L1140 590L1174 556" stroke="#0F766E" stroke-width="12" stroke-linecap="round" stroke-linejoin="round"/>
    <text x="1222" y="574" fill="#0F172A" font-family="Arial, Helvetica, sans-serif" font-size="32" font-weight="700">EES live</text>
    <text x="1222" y="616" fill="#475569" font-family="Arial, Helvetica, sans-serif" font-size="24">Biometric border flow matters</text>
    <text x="1222" y="650" fill="#475569" font-family="Arial, Helvetica, sans-serif" font-size="24">more on short breaks</text>
  </g>

  <g opacity="0.95">
    <rect x="1160" y="748" width="228" height="84" rx="22" fill="#FFFFFF"/>
    <text x="1192" y="800" fill="#0F172A" font-family="Arial, Helvetica, sans-serif" font-size="24" font-weight="700">
      CheaplyGo blog
    </text>
  </g>
</svg>
