<svg width="1600" height="900" viewBox="0 0 1600 900" fill="none" xmlns="http://www.w3.org/2000/svg">
  <rect width="1600" height="900" fill="#08111F"/>
  <rect width="1600" height="900" fill="url(#bgGlow)"/>
  <circle cx="1303" cy="157" r="203" fill="#163A63" fill-opacity="0.42"/>
  <circle cx="281" cy="748" r="261" fill="#0E7C86" fill-opacity="0.2"/>
  <path d="M0 695C182 638 348 626 507 655C689 689 827 776 1002 771C1173 766 1357 641 1600 621V900H0V695Z" fill="url(#ground)"/>
  <path d="M88 603C209 530 347 524 459 575C572 626 661 618 751 571C842 524 935 437 1065 430C1193 423 1328 495 1518 452" stroke="url(#route)" stroke-width="10" stroke-linecap="round" stroke-dasharray="14 18"/>
  <g filter="url(#planeShadow)">
    <path d="M1044 449L1082 423L1127 428L1100 452L1153 476L1141 491L1085 474L1069 517L1049 512L1054 469L1015 472L1008 456L1044 449Z" fill="#F7FAFC"/>
  </g>
  <g opacity="0.95">
    <rect x="118" y="106" width="452" height="262" rx="30" fill="#F8FAFC"/>
    <rect x="118" y="106" width="452" height="262" rx="30" stroke="#D7E1EA"/>
    <text x="158" y="172" fill="#0F172A" font-size="36" font-family="Georgia, serif" font-weight="700">First Night in Europe</text>
    <text x="158" y="218" fill="#475569" font-size="25" font-family="Arial, sans-serif">Airport hotel or city-center stay?</text>
    <rect x="158" y="255" width="162" height="54" rx="16" fill="#0F766E"/>
    <text x="191" y="289" fill="#ECFEFF" font-size="24" font-family="Arial, sans-serif" font-weight="700">Late Arrival</text>
    <rect x="337" y="255" width="176" height="54" rx="16" fill="#1D4ED8"/>
    <text x="373" y="289" fill="#EFF6FF" font-size="24" font-family="Arial, sans-serif" font-weight="700">Hotel Logic</text>
  </g>
  <g filter="url(#cardShadow)">
    <rect x="1017" y="172" width="338" height="228" rx="28" fill="#FFF7ED"/>
    <rect x="1017" y="172" width="338" height="228" rx="28" stroke="#FED7AA"/>
    <text x="1060" y="228" fill="#9A3412" font-size="24" font-family="Arial, sans-serif" font-weight="700">Airport Hotel</text>
    <text x="1060" y="272" fill="#7C2D12" font-size="20" font-family="Arial, sans-serif">Best if arrival is after 22:00,</text>
    <text x="1060" y="304" fill="#7C2D12" font-size="20" font-family="Arial, sans-serif">transfer is long, or check-in</text>
    <text x="1060" y="336" fill="#7C2D12" font-size="20" font-family="Arial, sans-serif">risk is high.</text>
    <rect x="1060" y="353" width="251" height="4" rx="2" fill="#FDBA74"/>
  </g>
  <g filter="url(#cardShadow)">
    <rect x="1141" y="497" width="330" height="214" rx="28" fill="#EFF6FF"/>
    <rect x="1141" y="497" width="330" height="214" rx="28" stroke="#BFDBFE"/>
    <text x="1183" y="553" fill="#1D4ED8" font-size="24" font-family="Arial, sans-serif" font-weight="700">City Center</text>
    <text x="1183" y="597" fill="#1E3A8A" font-size="20" font-family="Arial, sans-serif">Best if train is direct,</text>
    <text x="1183" y="629" fill="#1E3A8A" font-size="20" font-family="Arial, sans-serif">arrival is earlier, and</text>
    <text x="1183" y="661" fill="#1E3A8A" font-size="20" font-family="Arial, sans-serif">next morning starts in town.</text>
  </g>
  <g opacity="0.92">
    <rect x="204" y="526" width="346" height="192" rx="26" fill="#0F172A" stroke="#334155"/>
    <circle cx="266" cy="586" r="28" fill="#E2E8F0"/>
    <rect x="310" y="564" width="172" height="16" rx="8" fill="#F8FAFC"/>
    <rect x="310" y="593" width="121" height="13" rx="6.5" fill="#94A3B8"/>
    <rect x="244" y="643" width="124" height="38" rx="14" fill="#F59E0B"/>
    <text x="276" y="668" fill="#1C1917" font-size="19" font-family="Arial, sans-serif" font-weight="700">22:40 ARRIVAL</text>
    <rect x="383" y="643" width="129" height="38" rx="14" fill="#1D4ED8"/>
    <text x="418" y="668" fill="#EFF6FF" font-size="19" font-family="Arial, sans-serif" font-weight="700">BORDER</text>
  </g>
  <g opacity="0.78">
    <rect x="585" y="642" width="463" height="118" rx="28" fill="#F8FAFC"/>
    <text x="632" y="696" fill="#0F172A" font-size="29" font-family="Georgia, serif" font-weight="700">Choose the smoother first night, not just the cheaper room.</text>
  </g>
  <defs>
    <linearGradient id="bgGlow" x1="209" y1="82" x2="1356" y2="830" gradientUnits="userSpaceOnUse">
      <stop stop-color="#0B1730"/>
      <stop offset="0.56" stop-color="#102742"/>
      <stop offset="1" stop-color="#0A121E"/>
    </linearGradient>
    <linearGradient id="ground" x1="225" y1="567" x2="1351" y2="834" gradientUnits="userSpaceOnUse">
      <stop stop-color="#0F172A"/>
      <stop offset="0.52" stop-color="#0B253A"/>
      <stop offset="1" stop-color="#10314B"/>
    </linearGradient>
    <linearGradient id="route" x1="96" y1="604" x2="1518" y2="452" gradientUnits="userSpaceOnUse">
      <stop stop-color="#FDBA74"/>
      <stop offset="0.48" stop-color="#FDE68A"/>
      <stop offset="1" stop-color="#7DD3FC"/>
    </linearGradient>
    <filter id="cardShadow" x="997" y="154" width="494" height="577" filterUnits="userSpaceOnUse" color-interpolation-filters="sRGB">
      <feFlood flood-opacity="0" result="BackgroundImageFix"/>
      <feColorMatrix in="SourceAlpha" type="matrix" values="0 0 0 0 0 0 0 0 0 0 0 0 0 0 0 0 0 0 127 0" result="hardAlpha"/>
      <feOffset dx="6" dy="12"/>
      <feGaussianBlur stdDeviation="13"/>
      <feComposite in2="hardAlpha" operator="out"/>
      <feColorMatrix type="matrix" values="0 0 0 0 0.0196078 0 0 0 0 0.0941176 0 0 0 0 0.188235 0 0 0 0.18 0"/>
      <feBlend mode="normal" in2="BackgroundImageFix" result="effect1_dropShadow_1_1"/>
      <feBlend mode="normal" in="SourceGraphic" in2="effect1_dropShadow_1_1" result="shape"/>
    </filter>
    <filter id="planeShadow" x="993" y="410" width="175" height="129" filterUnits="userSpaceOnUse" color-interpolation-filters="sRGB">
      <feFlood flood-opacity="0" result="BackgroundImageFix"/>
      <feColorMatrix in="SourceAlpha" type="matrix" values="0 0 0 0 0 0 0 0 0 0 0 0 0 0 0 0 0 0 127 0" result="hardAlpha"/>
      <feOffset dx="5" dy="6"/>
      <feGaussianBlur stdDeviation="6"/>
      <feComposite in2="hardAlpha" operator="out"/>
      <feColorMatrix type="matrix" values="0 0 0 0 0.00784314 0 0 0 0 0.0470588 0 0 0 0 0.105882 0 0 0 0.35 0"/>
      <feBlend mode="normal" in2="BackgroundImageFix" result="effect1_dropShadow_1_1"/>
      <feBlend mode="normal" in="SourceGraphic" in2="effect1_dropShadow_1_1" result="shape"/>
    </filter>
  </defs>
</svg>
