<svg width="1600" height="900" viewBox="0 0 1600 900" fill="none" xmlns="http://www.w3.org/2000/svg">
  <defs>
    <linearGradient id="bg" x1="158" y1="84" x2="1439" y2="815" gradientUnits="userSpaceOnUse">
      <stop stop-color="#0F172A"/>
      <stop offset="0.5" stop-color="#16324F"/>
      <stop offset="1" stop-color="#2C5F7A"/>
    </linearGradient>
    <linearGradient id="panel" x1="234" y1="184" x2="1254" y2="744" gradientUnits="userSpaceOnUse">
      <stop stop-color="#F8FAFC" stop-opacity="0.98"/>
      <stop offset="1" stop-color="#E2E8F0" stop-opacity="0.92"/>
    </linearGradient>
    <linearGradient id="cardA" x1="0" y1="0" x2="0" y2="1">
      <stop stop-color="#FFE8D6"/>
      <stop offset="1" stop-color="#FFD3B0"/>
    </linearGradient>
    <linearGradient id="cardB" x1="0" y1="0" x2="1" y2="1">
      <stop stop-color="#E0F2FE"/>
      <stop offset="1" stop-color="#BAE6FD"/>
    </linearGradient>
    <linearGradient id="cardC" x1="0" y1="0" x2="1" y2="1">
      <stop stop-color="#DCFCE7"/>
      <stop offset="1" stop-color="#BBF7D0"/>
    </linearGradient>
    <filter id="shadow" x="180" y="128" width="1260" height="640" filterUnits="userSpaceOnUse" color-interpolation-filters="sRGB">
      <feFlood flood-opacity="0" result="BackgroundImageFix"/>
      <feColorMatrix in="SourceAlpha" type="matrix" values="0 0 0 0 0 0 0 0 0 0 0 0 0 0 0 0 0 0 127 0" result="hardAlpha"/>
      <feOffset dy="18"/>
      <feGaussianBlur stdDeviation="26"/>
      <feColorMatrix type="matrix" values="0 0 0 0 0.0588235 0 0 0 0 0.0901961 0 0 0 0 0.164706 0 0 0 0.24 0"/>
      <feBlend mode="normal" in2="BackgroundImageFix" result="effect1_dropShadow_0_1"/>
      <feBlend mode="normal" in="SourceGraphic" in2="effect1_dropShadow_0_1" result="shape"/>
    </filter>
  </defs>

  <rect width="1600" height="900" rx="40" fill="url(#bg)"/>
  <circle cx="1320" cy="170" r="190" fill="#C9FF05" fill-opacity="0.08"/>
  <circle cx="260" cy="780" r="210" fill="#F97316" fill-opacity="0.08"/>
  <path d="M160 714C303 626 451 585 601 589C792 593 939 699 1130 683C1233 674 1323 626 1442 546" stroke="#C9FF05" stroke-width="5" stroke-linecap="round" stroke-dasharray="10 14"/>

  <g filter="url(#shadow)">
    <rect x="232" y="152" width="1136" height="564" rx="34" fill="url(#panel)"/>
  </g>

  <rect x="286" y="208" width="448" height="214" rx="28" fill="url(#cardA)"/>
  <rect x="756" y="208" width="258" height="214" rx="28" fill="url(#cardB)"/>
  <rect x="1038" y="208" width="274" height="214" rx="28" fill="url(#cardC)"/>

  <text x="332" y="278" fill="#0F172A" font-family="Arial, sans-serif" font-size="26" font-weight="700">Paris</text>
  <text x="332" y="322" fill="#475569" font-family="Arial, sans-serif" font-size="54" font-weight="800">Start Slow</text>
  <text x="332" y="364" fill="#475569" font-family="Arial, sans-serif" font-size="24" font-weight="600">First city stay</text>

  <text x="800" y="278" fill="#0F172A" font-family="Arial, sans-serif" font-size="26" font-weight="700">Amsterdam</text>
  <text x="800" y="322" fill="#0F172A" font-family="Arial, sans-serif" font-size="54" font-weight="800">Balance</text>
  <text x="800" y="364" fill="#475569" font-family="Arial, sans-serif" font-size="24" font-weight="600">Gateway + onward</text>

  <text x="1082" y="278" fill="#0F172A" font-family="Arial, sans-serif" font-size="26" font-weight="700">Frankfurt</text>
  <text x="1082" y="322" fill="#0F172A" font-family="Arial, sans-serif" font-size="54" font-weight="800">Flow</text>
  <text x="1082" y="364" fill="#475569" font-family="Arial, sans-serif" font-size="24" font-weight="600">Fast next step</text>

  <rect x="296" y="484" width="392" height="164" rx="24" fill="#0F172A"/>
  <text x="336" y="542" fill="#F8FAFC" font-family="Arial, sans-serif" font-size="24" font-weight="700">Summer 2026</text>
  <text x="336" y="588" fill="#F8FAFC" font-family="Arial, sans-serif" font-size="44" font-weight="800">EES Live</text>
  <text x="336" y="624" fill="#94A3B8" font-family="Arial, sans-serif" font-size="22" font-weight="600">ETIAS not active yet</text>

  <rect x="740" y="474" width="528" height="176" rx="26" fill="#FFFFFF"/>
  <rect x="780" y="514" width="174" height="96" rx="18" fill="#E2E8F0"/>
  <rect x="970" y="514" width="258" height="96" rx="18" fill="#F8FAFC" stroke="#CBD5E1" stroke-width="2"/>
  <text x="807" y="571" fill="#0F172A" font-family="Arial, sans-serif" font-size="24" font-weight="700">Passport</text>
  <path d="M1035 540C1061 520 1091 521 1115 540C1139 559 1138 590 1114 607C1090 624 1062 625 1036 607C1012 590 1010 560 1035 540Z" stroke="#2C5F7A" stroke-width="8"/>
  <path d="M1074 530V615" stroke="#2C5F7A" stroke-width="8" stroke-linecap="round"/>
  <path d="M1041 563H1108" stroke="#2C5F7A" stroke-width="8" stroke-linecap="round"/>
  <path d="M1180 530C1198 543 1207 557 1207 572C1207 589 1197 604 1178 618" stroke="#94A3B8" stroke-width="8" stroke-linecap="round"/>
  <path d="M1158 538C1171 548 1178 559 1178 572C1178 587 1171 598 1158 607" stroke="#94A3B8" stroke-width="6" stroke-linecap="round"/>
  <text x="982" y="642" fill="#475569" font-family="Arial, sans-serif" font-size="20" font-weight="600">First entry + first night logic</text>

  <path d="M510 130C612 112 734 116 842 141" stroke="#F8FAFC" stroke-opacity="0.18" stroke-width="4" stroke-linecap="round"/>
  <path d="M1308 152L1360 168L1332 218" stroke="#F8FAFC" stroke-opacity="0.4" stroke-width="4" stroke-linecap="round" stroke-linejoin="round"/>
</svg>
