<svg width="1600" height="900" viewBox="0 0 1600 900" fill="none" xmlns="http://www.w3.org/2000/svg">
  <rect width="1600" height="900" fill="#F6F1E8"/>
  <rect width="1600" height="900" fill="url(#bg)"/>
  <circle cx="1282" cy="150" r="162" fill="#F0B06B" fill-opacity="0.34"/>
  <circle cx="248" cy="744" r="232" fill="#2B6770" fill-opacity="0.14"/>
  <path d="M0 662C180 624 414 604 622 642C824 678 990 758 1214 742C1368 732 1488 686 1600 644V900H0V662Z" fill="url(#ground)"/>

  <g filter="url(#cardShadow)">
    <rect x="98" y="92" width="650" height="306" rx="34" fill="#FFFDF8"/>
    <rect x="98" y="92" width="650" height="306" rx="34" stroke="#E7D9C5"/>
    <text x="148" y="164" fill="#213745" font-size="44" font-family="Georgia, serif" font-weight="700">Athens, Budapest, or Berlin?</text>
    <text x="148" y="220" fill="#5E6F79" font-size="27" font-family="Arial, sans-serif">Summer 2026 US to Europe city-break planning</text>
    <rect x="148" y="264" width="180" height="58" rx="18" fill="#1E6D77"/>
    <text x="194" y="301" fill="#F4FBFC" font-size="24" font-family="Arial, sans-serif" font-weight="700">Flight Ease</text>
    <rect x="344" y="264" width="170" height="58" rx="18" fill="#CB7042"/>
    <text x="388" y="301" fill="#FFF8F2" font-size="24" font-family="Arial, sans-serif" font-weight="700">Hotel Fit</text>
    <rect x="530" y="264" width="170" height="58" rx="18" fill="#C6A35C"/>
    <text x="574" y="301" fill="#FFF9EE" font-size="24" font-family="Arial, sans-serif" font-weight="700">City Pace</text>
    <text x="148" y="360" fill="#213745" font-size="24" font-family="Arial, sans-serif">Pick the city where your first nights stay clean and usable.</text>
  </g>

  <path d="M596 490C730 430 866 420 996 450C1118 478 1232 540 1398 514" stroke="url(#route)" stroke-width="10" stroke-linecap="round" stroke-dasharray="16 18"/>
  <g filter="url(#planeShadow)">
    <path d="M954 456L994 431L1046 437L1016 463L1072 490L1058 506L1000 488L985 533L962 528L968 481L928 484L920 467L954 456Z" fill="#FFFDF8"/>
  </g>

  <g filter="url(#panelShadow)">
    <rect x="964" y="110" width="462" height="260" rx="30" fill="#FFF8EE"/>
    <rect x="964" y="110" width="462" height="260" rx="30" stroke="#E6D3B5"/>
    <text x="1010" y="172" fill="#985024" font-size="30" font-family="Georgia, serif" font-weight="700">How the Cities Feel</text>
    <text x="1010" y="222" fill="#7A4D33" font-size="22" font-family="Arial, sans-serif">Athens: heat, history, summer mood</text>
    <text x="1010" y="258" fill="#7A4D33" font-size="22" font-family="Arial, sans-serif">Budapest: value, views, compact stay</text>
    <text x="1010" y="294" fill="#7A4D33" font-size="22" font-family="Arial, sans-serif">Berlin: neighborhoods, culture, scale</text>
  </g>

  <g filter="url(#panelShadow)">
    <rect x="1038" y="470" width="418" height="228" rx="30" fill="#F7FBFC"/>
    <rect x="1038" y="470" width="418" height="228" rx="30" stroke="#CEE1E3"/>
    <text x="1082" y="530" fill="#1E6D77" font-size="29" font-family="Georgia, serif" font-weight="700">Best Overall Logic</text>
    <text x="1082" y="576" fill="#35515A" font-size="21" font-family="Arial, sans-serif">Do not rank by airfare alone.</text>
    <text x="1082" y="610" fill="#35515A" font-size="21" font-family="Arial, sans-serif">Transfers, hotel zone, and usable</text>
    <text x="1082" y="644" fill="#35515A" font-size="21" font-family="Arial, sans-serif">energy decide the real winner.</text>
  </g>

  <g filter="url(#cardShadow)">
    <rect x="160" y="500" width="618" height="208" rx="30" fill="#173042"/>
    <rect x="160" y="500" width="618" height="208" rx="30" stroke="#345266"/>
    <rect x="212" y="546" width="152" height="110" rx="22" fill="#D98459"/>
    <text x="242" y="590" fill="#FFF7F1" font-size="30" font-family="Georgia, serif" font-weight="700">Athens</text>
    <text x="232" y="624" fill="#FFF7F1" font-size="18" font-family="Arial, sans-serif">Atmosphere + history</text>
    <rect x="392" y="546" width="152" height="110" rx="22" fill="#E6C27A"/>
    <text x="412" y="590" fill="#5B3D14" font-size="30" font-family="Georgia, serif" font-weight="700">Budapest</text>
    <text x="416" y="624" fill="#694A1D" font-size="18" font-family="Arial, sans-serif">Balanced total value</text>
    <rect x="572" y="546" width="152" height="110" rx="22" fill="#7B9FA9"/>
    <text x="608" y="590" fill="#F7FAFB" font-size="30" font-family="Georgia, serif" font-weight="700">Berlin</text>
    <text x="594" y="624" fill="#E8F1F4" font-size="18" font-family="Arial, sans-serif">Modern city depth</text>
  </g>

  <g opacity="0.94">
    <rect x="438" y="738" width="700" height="90" rx="28" fill="#FFFDF8"/>
    <text x="490" y="794" fill="#213745" font-size="30" font-family="Georgia, serif" font-weight="700">Better Europe trips come from cleaner tradeoffs, not louder city names.</text>
  </g>

  <defs>
    <linearGradient id="bg" x1="124" y1="66" x2="1412" y2="830" gradientUnits="userSpaceOnUse">
      <stop stop-color="#F8F2E8"/>
      <stop offset="0.54" stop-color="#E7EFE8"/>
      <stop offset="1" stop-color="#DCE6E1"/>
    </linearGradient>
    <linearGradient id="ground" x1="108" y1="624" x2="1402" y2="836" gradientUnits="userSpaceOnUse">
      <stop stop-color="#23435B"/>
      <stop offset="0.48" stop-color="#1A5963"/>
      <stop offset="1" stop-color="#344F59"/>
    </linearGradient>
    <linearGradient id="route" x1="596" y1="490" x2="1398" y2="514" gradientUnits="userSpaceOnUse">
      <stop stop-color="#D37D4C"/>
      <stop offset="0.5" stop-color="#E7C37D"/>
      <stop offset="1" stop-color="#4D8B95"/>
    </linearGradient>
    <filter id="cardShadow" x="78" y="79" width="764" height="656" filterUnits="userSpaceOnUse" color-interpolation-filters="sRGB">
      <feFlood flood-opacity="0" result="BackgroundImageFix"/>
      <feColorMatrix in="SourceAlpha" type="matrix" values="0 0 0 0 0 0 0 0 0 0 0 0 0 0 0 0 0 0 127 0" result="hardAlpha"/>
      <feOffset dx="8" dy="14"/>
      <feGaussianBlur stdDeviation="14"/>
      <feComposite in2="hardAlpha" operator="out"/>
      <feColorMatrix type="matrix" values="0 0 0 0 0.145098 0 0 0 0 0.219608 0 0 0 0 0.27451 0 0 0 0.14 0"/>
      <feBlend mode="normal" in2="BackgroundImageFix" result="effect1_dropShadow_1_1"/>
      <feBlend mode="normal" in="SourceGraphic" in2="effect1_dropShadow_1_1" result="shape"/>
    </filter>
    <filter id="panelShadow" x="940" y="92" width="540" height="634" filterUnits="userSpaceOnUse" color-interpolation-filters="sRGB">
      <feFlood flood-opacity="0" result="BackgroundImageFix"/>
      <feColorMatrix in="SourceAlpha" type="matrix" values="0 0 0 0 0 0 0 0 0 0 0 0 0 0 0 0 0 0 127 0" result="hardAlpha"/>
      <feOffset dx="8" dy="14"/>
      <feGaussianBlur stdDeviation="16"/>
      <feComposite in2="hardAlpha" operator="out"/>
      <feColorMatrix type="matrix" values="0 0 0 0 0.168627 0 0 0 0 0.223529 0 0 0 0 0.258824 0 0 0 0.12 0"/>
      <feBlend mode="normal" in2="BackgroundImageFix" result="effect1_dropShadow_1_1"/>
      <feBlend mode="normal" in="SourceGraphic" in2="effect1_dropShadow_1_1" result="shape"/>
    </filter>
    <filter id="planeShadow" x="905" y="420" width="187" height="135" filterUnits="userSpaceOnUse" color-interpolation-filters="sRGB">
      <feFlood flood-opacity="0" result="BackgroundImageFix"/>
      <feColorMatrix in="SourceAlpha" type="matrix" values="0 0 0 0 0 0 0 0 0 0 0 0 0 0 0 0 0 0 127 0" result="hardAlpha"/>
      <feOffset dx="5" dy="7"/>
      <feGaussianBlur stdDeviation="7"/>
      <feComposite in2="hardAlpha" operator="out"/>
      <feColorMatrix type="matrix" values="0 0 0 0 0.109804 0 0 0 0 0.156863 0 0 0 0 0.188235 0 0 0 0.22 0"/>
      <feBlend mode="normal" in2="BackgroundImageFix" result="effect1_dropShadow_1_1"/>
      <feBlend mode="normal" in="SourceGraphic" in2="effect1_dropShadow_1_1" result="shape"/>
    </filter>
  </defs>
</svg>
