<svg width="1600" height="900" viewBox="0 0 1600 900" fill="none" xmlns="http://www.w3.org/2000/svg">
  <defs>
    <linearGradient id="bg" x1="112" y1="72" x2="1454" y2="854" gradientUnits="userSpaceOnUse">
      <stop offset="0" stop-color="#FFF3E8"/>
      <stop offset="0.5" stop-color="#F3F8F7"/>
      <stop offset="1" stop-color="#E2ECF7"/>
    </linearGradient>
    <linearGradient id="card" x1="0" y1="0" x2="1" y2="1">
      <stop offset="0" stop-color="#FFFFFF"/>
      <stop offset="1" stop-color="#F5F7FB"/>
    </linearGradient>
    <linearGradient id="route" x1="0" y1="0" x2="1" y2="1">
      <stop offset="0" stop-color="#EA580C"/>
      <stop offset="0.55" stop-color="#0F766E"/>
      <stop offset="1" stop-color="#1D4ED8"/>
    </linearGradient>
    <filter id="shadow" x="-20%" y="-20%" width="140%" height="140%">
      <feDropShadow dx="0" dy="18" stdDeviation="20" flood-color="#1E293B" flood-opacity="0.14"/>
    </filter>
  </defs>

  <rect width="1600" height="900" fill="url(#bg)"/>
  <circle cx="1340" cy="170" r="170" fill="#FFF7ED" opacity="0.92"/>
  <circle cx="220" cy="760" r="210" fill="#DBEAFE" opacity="0.8"/>
  <circle cx="1280" cy="730" r="150" fill="#DCFCE7" opacity="0.72"/>

  <g opacity="0.18">
    <path d="M268 326C392 238 542 214 670 254C784 290 878 366 986 370C1096 374 1180 328 1292 246" stroke="#334155" stroke-width="10" stroke-linecap="round"/>
    <path d="M316 404C428 336 560 322 662 348C760 372 848 428 948 446C1052 466 1156 448 1284 384" stroke="#334155" stroke-width="10" stroke-linecap="round"/>
  </g>

  <g filter="url(#shadow)">
    <rect x="124" y="106" width="612" height="236" rx="36" fill="url(#card)"/>
  </g>
  <text x="172" y="178" fill="#0F172A" font-family="Georgia, 'Times New Roman', serif" font-size="60" font-weight="700">
    Late Summer 2026
  </text>
  <text x="172" y="242" fill="#0F172A" font-family="Georgia, 'Times New Roman', serif" font-size="60" font-weight="700">
    Europe Value Picks
  </text>
  <text x="172" y="294" fill="#475569" font-family="Arial, Helvetica, sans-serif" font-size="28">
    Naples, Tirana and Warsaw for flight and hotel balance
  </text>

  <g>
    <path d="M338 506C462 430 586 404 722 436C812 458 890 510 978 520C1070 530 1170 500 1282 424" stroke="url(#route)" stroke-width="12" stroke-linecap="round" stroke-dasharray="14 18"/>
    <circle cx="340" cy="506" r="14" fill="#EA580C"/>
    <circle cx="1282" cy="424" r="14" fill="#1D4ED8"/>
    <path d="M800 452L832 464L818 482L834 504L812 512L798 492L772 498L782 478L754 464L782 456L780 428L798 446L824 432L820 452L846 454L800 452Z" fill="#0F172A"/>
  </g>

  <g filter="url(#shadow)">
    <rect x="166" y="580" width="258" height="176" rx="30" fill="url(#card)"/>
    <rect x="474" y="448" width="258" height="176" rx="30" fill="url(#card)"/>
    <rect x="806" y="580" width="258" height="176" rx="30" fill="url(#card)"/>
    <rect x="1128" y="364" width="278" height="188" rx="30" fill="url(#card)"/>
  </g>

  <g>
    <text x="202" y="636" fill="#0F172A" font-family="Arial, Helvetica, sans-serif" font-size="36" font-weight="700">Naples</text>
    <text x="202" y="682" fill="#475569" font-family="Arial, Helvetica, sans-serif" font-size="24">Mediterranean impact</text>
    <rect x="202" y="708" width="168" height="14" rx="7" fill="#F97316"/>
    <rect x="202" y="734" width="132" height="12" rx="6" fill="#CBD5E1"/>
  </g>

  <g>
    <text x="510" y="504" fill="#0F172A" font-family="Arial, Helvetica, sans-serif" font-size="36" font-weight="700">Tirana</text>
    <text x="510" y="550" fill="#475569" font-family="Arial, Helvetica, sans-serif" font-size="24">Lower hotel pressure</text>
    <rect x="510" y="576" width="154" height="14" rx="7" fill="#0F766E"/>
    <rect x="510" y="602" width="144" height="12" rx="6" fill="#CBD5E1"/>
  </g>

  <g>
    <text x="842" y="636" fill="#0F172A" font-family="Arial, Helvetica, sans-serif" font-size="36" font-weight="700">Warsaw</text>
    <text x="842" y="682" fill="#475569" font-family="Arial, Helvetica, sans-serif" font-size="24">Clean planning logic</text>
    <rect x="842" y="708" width="162" height="14" rx="7" fill="#2563EB"/>
    <rect x="842" y="734" width="136" height="12" rx="6" fill="#CBD5E1"/>
  </g>

  <g opacity="0.96">
    <rect x="1170" y="128" width="224" height="112" rx="24" fill="#0F172A"/>
    <text x="1210" y="176" fill="#F8FAFC" font-family="Arial, Helvetica, sans-serif" font-size="24" font-weight="700">Trend angle</text>
    <text x="1210" y="212" fill="#CBD5E1" font-family="Arial, Helvetica, sans-serif" font-size="22">Value beyond classics</text>
  </g>

  <g>
    <text x="1164" y="430" fill="#0F172A" font-family="Arial, Helvetica, sans-serif" font-size="34" font-weight="700">2026 signal</text>
    <text x="1164" y="474" fill="#475569" font-family="Arial, Helvetica, sans-serif" font-size="24">Europe demand stays strong</text>
    <text x="1164" y="510" fill="#0F766E" font-family="Arial, Helvetica, sans-serif" font-size="26" font-weight="700">Look for smarter second picks</text>
  </g>
</svg>
