<svg width="1600" height="900" viewBox="0 0 1600 900" fill="none" xmlns="http://www.w3.org/2000/svg">
  <rect width="1600" height="900" fill="#102033"/>
  <rect width="1600" height="900" fill="url(#bg)"/>
  <circle cx="1338" cy="124" r="120" fill="#F59E0B" fill-opacity="0.18"/>
  <circle cx="192" cy="758" r="220" fill="#2563EB" fill-opacity="0.12"/>
  <circle cx="1270" cy="734" r="248" fill="#0F766E" fill-opacity="0.14"/>
  <path d="M0 696C160 642 316 628 464 652C620 676 742 734 892 740C1048 746 1168 694 1304 678C1418 664 1516 680 1600 720V900H0V696Z" fill="#17324B"/>
  <path d="M0 782C170 748 336 742 494 760C652 778 792 820 944 824C1100 828 1218 790 1354 780C1452 774 1530 784 1600 812V900H0V782Z" fill="#1C3D5A"/>
  <text x="84" y="102" fill="#F8FAFC" font-family="Arial, Helvetica, sans-serif" font-size="56" font-weight="700">US to Europe Fall 2026</text>
  <text x="84" y="146" fill="#CBD5E1" font-family="Arial, Helvetica, sans-serif" font-size="26">Vienna vs Barcelona vs Edinburgh</text>
  <rect x="84" y="204" width="438" height="458" rx="34" fill="#F7F3EA"/>
  <rect x="112" y="232" width="382" height="402" rx="28" fill="#12314A"/>
  <text x="144" y="286" fill="#F8FAFC" font-family="Arial, Helvetica, sans-serif" font-size="34" font-weight="700">Vienna</text>
  <rect x="144" y="322" width="126" height="126" rx="24" fill="#DCEAF4"/>
  <circle cx="207" cy="384" r="34" fill="#12314A"/>
  <rect x="191" y="354" width="32" height="60" rx="10" fill="#DCEAF4"/>
  <rect x="302" y="336" width="146" height="16" rx="8" fill="#D1DCE8"/>
  <rect x="302" y="372" width="120" height="12" rx="6" fill="#7D97AD"/>
  <rect x="144" y="490" width="308" height="16" rx="8" fill="#4C6E88"/>
  <rect x="144" y="524" width="278" height="16" rx="8" fill="#4C6E88"/>
  <rect x="144" y="558" width="232" height="16" rx="8" fill="#4C6E88"/>
  <rect x="144" y="600" width="190" height="18" rx="9" fill="#85D0C7"/>
  <text x="158" y="614" fill="#12314A" font-family="Arial, Helvetica, sans-serif" font-size="15" font-weight="700">Calm pace + clean logistics</text>
  <rect x="580" y="204" width="438" height="458" rx="34" fill="#F7F3EA"/>
  <rect x="608" y="232" width="382" height="402" rx="28" fill="#173A5A"/>
  <text x="640" y="286" fill="#F8FAFC" font-family="Arial, Helvetica, sans-serif" font-size="34" font-weight="700">Barcelona</text>
  <rect x="640" y="322" width="126" height="126" rx="24" fill="#F0B86D"/>
  <path d="M676 412C676 392 692 376 712 376C732 376 748 392 748 412" stroke="#173A5A" stroke-width="12" stroke-linecap="round"/>
  <circle cx="694" cy="362" r="8" fill="#173A5A"/>
  <circle cx="730" cy="362" r="8" fill="#173A5A"/>
  <rect x="798" y="336" width="144" height="16" rx="8" fill="#D1DCE8"/>
  <rect x="798" y="372" width="130" height="12" rx="6" fill="#86A5BC"/>
  <rect x="640" y="490" width="306" height="16" rx="8" fill="#53728B"/>
  <rect x="640" y="524" width="286" height="16" rx="8" fill="#53728B"/>
  <rect x="640" y="558" width="246" height="16" rx="8" fill="#53728B"/>
  <rect x="640" y="600" width="174" height="18" rx="9" fill="#F0B86D"/>
  <text x="654" y="614" fill="#173A5A" font-family="Arial, Helvetica, sans-serif" font-size="15" font-weight="700">Energy + hotel pressure</text>
  <circle cx="1270" cy="330" r="168" fill="#14324D"/>
  <circle cx="1270" cy="330" r="130" fill="#204E76"/>
  <path d="M1208 390L1244 268C1248 254 1260 244 1274 244C1288 244 1300 254 1304 268L1338 390" stroke="#F7F3EA" stroke-width="16" stroke-linecap="round"/>
  <path d="M1228 390H1318" stroke="#F7F3EA" stroke-width="16" stroke-linecap="round"/>
  <path d="M1202 422H1344" stroke="#F0B86D" stroke-width="16" stroke-linecap="round"/>
  <g fill="#F0B86D">
    <circle cx="1184" cy="190" r="10"/>
    <circle cx="1234" cy="154" r="10"/>
    <circle cx="1298" cy="144" r="10"/>
    <circle cx="1360" cy="162" r="10"/>
    <circle cx="1408" cy="204" r="10"/>
    <circle cx="1436" cy="266" r="10"/>
    <circle cx="1440" cy="334" r="10"/>
    <circle cx="1420" cy="398" r="10"/>
    <circle cx="1378" cy="450" r="10"/>
    <circle cx="1318" cy="482" r="10"/>
    <circle cx="1250" cy="488" r="10"/>
    <circle cx="1188" cy="468" r="10"/>
  </g>
  <path d="M1062 596C1150 530 1260 500 1390 506" stroke="#F0B86D" stroke-width="10" stroke-linecap="round"/>
  <path d="M1006 652C1120 560 1262 516 1428 536" stroke="#DCEAF4" stroke-width="18" stroke-linecap="round"/>
  <path d="M952 706C1086 592 1256 538 1454 566" stroke="#F7F3EA" stroke-width="5" stroke-linecap="round" stroke-dasharray="2 18"/>
  <circle cx="952" cy="706" r="14" fill="#F0B86D"/>
  <circle cx="1454" cy="566" r="14" fill="#F0B86D"/>
  <path d="M944 698L982 670L972 716L944 698Z" fill="#F0B86D"/>
  <rect x="1020" y="626" width="466" height="122" rx="28" fill="#F7F3EA"/>
  <text x="1058" y="678" fill="#0F172A" font-family="Arial, Helvetica, sans-serif" font-size="34" font-weight="700">Edinburgh</text>
  <text x="1262" y="678" fill="#64748B" font-family="Arial, Helvetica, sans-serif" font-size="26">Autumn mood</text>
  <text x="1058" y="720" fill="#0F766E" font-family="Arial, Helvetica, sans-serif" font-size="26" font-weight="700">Walkable center + stronger character</text>
  <defs>
    <linearGradient id="bg" x1="180" y1="80" x2="1422" y2="836" gradientUnits="userSpaceOnUse">
      <stop stop-color="#112136"/>
      <stop offset="0.52" stop-color="#1D3F5D"/>
      <stop offset="1" stop-color="#1A3550"/>
    </linearGradient>
  </defs>
</svg>
