<svg width="1600" height="900" viewBox="0 0 1600 900" fill="none" xmlns="http://www.w3.org/2000/svg">
  <defs>
    <linearGradient id="bg" x1="146" y1="96" x2="1458" y2="834" gradientUnits="userSpaceOnUse">
      <stop offset="0" stop-color="#FFF7ED"/>
      <stop offset="0.45" stop-color="#F8FAFC"/>
      <stop offset="1" stop-color="#DBEAFE"/>
    </linearGradient>
    <linearGradient id="card" x1="0" y1="0" x2="1" y2="1">
      <stop offset="0" stop-color="#FFFFFF"/>
      <stop offset="1" stop-color="#F8FAFC"/>
    </linearGradient>
    <linearGradient id="route" x1="0" y1="0" x2="1" y2="1">
      <stop offset="0" stop-color="#EA580C"/>
      <stop offset="0.55" stop-color="#0F766E"/>
      <stop offset="1" stop-color="#2563EB"/>
    </linearGradient>
    <filter id="shadow" x="-20%" y="-20%" width="140%" height="140%">
      <feDropShadow dx="0" dy="20" stdDeviation="24" flood-color="#0F172A" flood-opacity="0.14"/>
    </filter>
  </defs>

  <rect width="1600" height="900" fill="url(#bg)"/>
  <circle cx="246" cy="170" r="120" fill="#FFEDD5"/>
  <circle cx="1340" cy="184" r="166" fill="#E0F2FE" opacity="0.9"/>
  <circle cx="1320" cy="738" r="154" fill="#DCFCE7" opacity="0.75"/>
  <circle cx="262" cy="748" r="212" fill="#FDE68A" opacity="0.28"/>

  <g opacity="0.18">
    <path d="M212 314C330 248 476 232 618 262C770 294 874 394 1008 418C1120 438 1230 408 1378 322" stroke="#334155" stroke-width="8" stroke-linecap="round"/>
    <path d="M228 390C352 338 494 338 612 364C742 392 870 474 1016 500C1138 522 1248 506 1388 446" stroke="#334155" stroke-width="8" stroke-linecap="round"/>
  </g>

  <g filter="url(#shadow)">
    <rect x="118" y="88" width="760" height="262" rx="40" fill="url(#card)"/>
  </g>
  <text x="170" y="170" fill="#0F172A" font-family="Georgia, 'Times New Roman', serif" font-size="56" font-weight="700">
    US to Europe 2026
  </text>
  <text x="170" y="236" fill="#0F172A" font-family="Georgia, 'Times New Roman', serif" font-size="56" font-weight="700">
    ETIAS, EES and First-Night Hotel Logic
  </text>
  <text x="170" y="292" fill="#475569" font-family="Arial, Helvetica, sans-serif" font-size="28">
    Border rules are only half the decision. Arrival flow and stay strategy matter too.
  </text>

  <g filter="url(#shadow)">
    <rect x="1064" y="118" width="334" height="188" rx="34" fill="#0F172A"/>
  </g>
  <text x="1108" y="180" fill="#F8FAFC" font-family="Arial, Helvetica, sans-serif" font-size="28" font-weight="700">June 2026 signal</text>
  <text x="1108" y="224" fill="#CBD5E1" font-family="Arial, Helvetica, sans-serif" font-size="24">EES active across Schengen</text>
  <text x="1108" y="262" fill="#86EFAC" font-family="Arial, Helvetica, sans-serif" font-size="24" font-weight="700">ETIAS not live yet</text>

  <path d="M248 514C388 444 550 424 712 446C854 466 968 532 1094 544C1188 552 1286 534 1380 478" stroke="url(#route)" stroke-width="12" stroke-linecap="round" stroke-dasharray="16 18"/>
  <circle cx="248" cy="514" r="14" fill="#EA580C"/>
  <circle cx="1380" cy="478" r="14" fill="#2563EB"/>

  <g transform="translate(748 430)">
    <path d="M58 0L80 24L74 56L102 74L84 102L50 98L28 122L4 98L-30 102L-48 74L-20 56L-26 24L-4 0L28 10L58 0Z" fill="#0F172A"/>
    <path d="M12 42C26 40 42 46 54 58" stroke="#F8FAFC" stroke-width="6" stroke-linecap="round"/>
    <path d="M10 70H56" stroke="#F8FAFC" stroke-width="6" stroke-linecap="round"/>
  </g>

  <g filter="url(#shadow)">
    <rect x="134" y="598" width="314" height="196" rx="32" fill="url(#card)"/>
    <rect x="506" y="560" width="314" height="234" rx="32" fill="url(#card)"/>
    <rect x="878" y="598" width="314" height="196" rx="32" fill="url(#card)"/>
    <rect x="1218" y="360" width="246" height="308" rx="32" fill="url(#card)"/>
  </g>

  <g>
    <text x="174" y="654" fill="#0F172A" font-family="Arial, Helvetica, sans-serif" font-size="34" font-weight="700">ETIAS</text>
    <text x="174" y="700" fill="#475569" font-family="Arial, Helvetica, sans-serif" font-size="24">Not required on</text>
    <text x="174" y="734" fill="#475569" font-family="Arial, Helvetica, sans-serif" font-size="24">June 8, 2026</text>
    <rect x="174" y="754" width="158" height="12" rx="6" fill="#16A34A"/>
  </g>

  <g>
    <text x="548" y="622" fill="#0F172A" font-family="Arial, Helvetica, sans-serif" font-size="34" font-weight="700">First-night stay</text>
    <text x="548" y="668" fill="#475569" font-family="Arial, Helvetica, sans-serif" font-size="24">Choose low-friction transit,</text>
    <text x="548" y="702" fill="#475569" font-family="Arial, Helvetica, sans-serif" font-size="24">late check-in, and a cleaner</text>
    <text x="548" y="736" fill="#475569" font-family="Arial, Helvetica, sans-serif" font-size="24">arrival rhythm.</text>
    <rect x="548" y="756" width="210" height="12" rx="6" fill="#0F766E"/>
  </g>

  <g>
    <text x="920" y="654" fill="#0F172A" font-family="Arial, Helvetica, sans-serif" font-size="34" font-weight="700">EES</text>
    <text x="920" y="700" fill="#475569" font-family="Arial, Helvetica, sans-serif" font-size="24">Digital first-entry</text>
    <text x="920" y="734" fill="#475569" font-family="Arial, Helvetica, sans-serif" font-size="24">border flow</text>
    <rect x="920" y="754" width="164" height="12" rx="6" fill="#2563EB"/>
  </g>

  <g>
    <rect x="1262" y="406" width="156" height="116" rx="22" fill="#E2E8F0"/>
    <rect x="1282" y="424" width="116" height="84" rx="18" fill="#F8FAFC"/>
    <path d="M1282 450H1398" stroke="#CBD5E1" stroke-width="6" stroke-linecap="round"/>
    <path d="M1282 476H1398" stroke="#CBD5E1" stroke-width="6" stroke-linecap="round"/>
    <path d="M1282 502H1360" stroke="#CBD5E1" stroke-width="6" stroke-linecap="round"/>
    <text x="1262" y="574" fill="#0F172A" font-family="Arial, Helvetica, sans-serif" font-size="28" font-weight="700">Arrival checklist</text>
    <text x="1262" y="614" fill="#475569" font-family="Arial, Helvetica, sans-serif" font-size="22">Airport link</text>
    <text x="1262" y="646" fill="#475569" font-family="Arial, Helvetica, sans-serif" font-size="22">Hotel timing</text>
  </g>

  <g transform="translate(244 404)">
    <rect x="0" y="0" width="166" height="108" rx="20" fill="#0F172A"/>
    <rect x="16" y="14" width="134" height="80" rx="14" fill="#F8FAFC"/>
    <circle cx="48" cy="54" r="18" fill="#DBEAFE"/>
    <path d="M84 42H126" stroke="#94A3B8" stroke-width="6" stroke-linecap="round"/>
    <path d="M84 64H126" stroke="#94A3B8" stroke-width="6" stroke-linecap="round"/>
    <path d="M36 86H126" stroke="#CBD5E1" stroke-width="6" stroke-linecap="round"/>
  </g>
</svg>
