<svg width="1600" height="900" viewBox="0 0 1600 900" fill="none" xmlns="http://www.w3.org/2000/svg">
  <defs>
    <linearGradient id="bg" x1="180" y1="80" x2="1460" y2="830" gradientUnits="userSpaceOnUse">
      <stop offset="0" stop-color="#F7F3EA"/>
      <stop offset="0.48" stop-color="#EEF8F5"/>
      <stop offset="1" stop-color="#E5EEF9"/>
    </linearGradient>
    <linearGradient id="panel" x1="0" y1="0" x2="1" y2="1">
      <stop offset="0" stop-color="#FFFFFF"/>
      <stop offset="1" stop-color="#F5F7FB"/>
    </linearGradient>
    <linearGradient id="route" x1="298" y1="470" x2="1308" y2="454" gradientUnits="userSpaceOnUse">
      <stop offset="0" stop-color="#B45309"/>
      <stop offset="0.5" stop-color="#0F766E"/>
      <stop offset="1" stop-color="#2563EB"/>
    </linearGradient>
    <filter id="shadow" x="-20%" y="-20%" width="140%" height="140%">
      <feDropShadow dx="0" dy="20" stdDeviation="24" flood-color="#0F172A" flood-opacity="0.14"/>
    </filter>
  </defs>

  <rect width="1600" height="900" fill="url(#bg)"/>
  <circle cx="1328" cy="178" r="166" fill="#FEF3C7" opacity="0.72"/>
  <circle cx="236" cy="748" r="204" fill="#DBEAFE" opacity="0.72"/>
  <circle cx="1290" cy="762" r="138" fill="#D1FAE5" opacity="0.76"/>

  <g opacity="0.18">
    <path d="M248 352C394 252 552 224 712 260C826 286 924 366 1032 378C1132 390 1232 352 1362 246" stroke="#334155" stroke-width="10" stroke-linecap="round"/>
    <path d="M278 430C416 348 564 334 696 360C818 384 906 450 1018 466C1126 482 1230 456 1356 388" stroke="#334155" stroke-width="10" stroke-linecap="round"/>
  </g>

  <g filter="url(#shadow)">
    <rect x="112" y="98" width="702" height="252" rx="38" fill="url(#panel)"/>
  </g>
  <text x="164" y="176" fill="#0F172A" font-family="Georgia, 'Times New Roman', serif" font-size="56" font-weight="700">
    Late Summer 2026
  </text>
  <text x="164" y="238" fill="#0F172A" font-family="Georgia, 'Times New Roman', serif" font-size="56" font-weight="700">
    Europe Value Routes
  </text>
  <text x="164" y="292" fill="#475569" font-family="Arial, Helvetica, sans-serif" font-size="28">
    Dublin, Reykjavik and Stockholm beyond the July peak
  </text>

  <g>
    <path d="M316 488C444 428 580 414 714 438C804 454 896 504 986 518C1084 534 1182 518 1308 446" stroke="url(#route)" stroke-width="12" stroke-linecap="round" stroke-dasharray="14 18"/>
    <circle cx="316" cy="488" r="14" fill="#B45309"/>
    <circle cx="1308" cy="446" r="14" fill="#2563EB"/>
    <path d="M794 440L822 452L810 474L828 494L804 504L790 482L764 490L776 470L750 456L776 448L774 420L792 436L818 424L814 444L842 446L794 440Z" fill="#0F172A"/>
  </g>

  <g filter="url(#shadow)">
    <rect x="154" y="586" width="276" height="176" rx="30" fill="url(#panel)"/>
    <rect x="486" y="430" width="286" height="184" rx="30" fill="url(#panel)"/>
    <rect x="834" y="586" width="286" height="176" rx="30" fill="url(#panel)"/>
    <rect x="1142" y="356" width="292" height="194" rx="30" fill="url(#panel)"/>
  </g>

  <g>
    <text x="190" y="642" fill="#0F172A" font-family="Arial, Helvetica, sans-serif" font-size="36" font-weight="700">Dublin</text>
    <text x="190" y="688" fill="#475569" font-family="Arial, Helvetica, sans-serif" font-size="24">Easy entry rhythm</text>
    <rect x="190" y="714" width="180" height="14" rx="7" fill="#B45309"/>
    <rect x="190" y="740" width="138" height="12" rx="6" fill="#CBD5E1"/>
  </g>

  <g>
    <text x="520" y="490" fill="#0F172A" font-family="Arial, Helvetica, sans-serif" font-size="36" font-weight="700">Reykjavik</text>
    <text x="520" y="536" fill="#475569" font-family="Arial, Helvetica, sans-serif" font-size="24">Shorter flight feel</text>
    <rect x="520" y="562" width="192" height="14" rx="7" fill="#0F766E"/>
    <rect x="520" y="588" width="148" height="12" rx="6" fill="#CBD5E1"/>
  </g>

  <g>
    <text x="868" y="642" fill="#0F172A" font-family="Arial, Helvetica, sans-serif" font-size="36" font-weight="700">Stockholm</text>
    <text x="868" y="688" fill="#475569" font-family="Arial, Helvetica, sans-serif" font-size="24">Calm city flow</text>
    <rect x="868" y="714" width="198" height="14" rx="7" fill="#2563EB"/>
    <rect x="868" y="740" width="154" height="12" rx="6" fill="#CBD5E1"/>
  </g>

  <g opacity="0.96">
    <rect x="1168" y="126" width="222" height="110" rx="24" fill="#0F172A"/>
    <text x="1204" y="172" fill="#F8FAFC" font-family="Arial, Helvetica, sans-serif" font-size="24" font-weight="700">Aug-Sep 2026</text>
    <text x="1204" y="208" fill="#CBD5E1" font-family="Arial, Helvetica, sans-serif" font-size="22">Value after July pressure</text>
  </g>

  <g>
    <text x="1172" y="422" fill="#0F172A" font-family="Arial, Helvetica, sans-serif" font-size="34" font-weight="700">Booking signal</text>
    <text x="1172" y="466" fill="#475569" font-family="Arial, Helvetica, sans-serif" font-size="24">Late summer rewards flexible dates</text>
    <text x="1172" y="504" fill="#0F766E" font-family="Arial, Helvetica, sans-serif" font-size="26" font-weight="700">Flight plus first hotel night beats fare alone</text>
  </g>
</svg>
