<svg width="1600" height="900" viewBox="0 0 1600 900" fill="none" xmlns="http://www.w3.org/2000/svg">
  <rect width="1600" height="900" fill="#F5F1E8"/>
  <rect width="1600" height="900" fill="url(#bg)"/>
  <ellipse cx="1220" cy="160" rx="230" ry="88" fill="#FFF1CC" opacity="0.9"/>
  <path d="M0 688C145 628 279 609 424 628C561 647 668 693 782 697C909 702 1000 654 1118 633C1250 609 1380 620 1600 692V900H0V688Z" fill="#D4DFE4"/>
  <path d="M0 748C132 720 271 717 421 742C563 766 668 812 790 814C910 816 1014 779 1132 757C1284 728 1418 734 1600 780V900H0V748Z" fill="#A9BAC2"/>
  <rect x="118" y="168" width="492" height="336" rx="30" fill="#FFFDF9" stroke="#DCCFBE" stroke-width="3"/>
  <rect x="972" y="216" width="502" height="352" rx="34" fill="#FBFCFD" stroke="#D0DAE1" stroke-width="3"/>
  <rect x="158" y="214" width="162" height="20" rx="10" fill="#D7AA62"/>
  <rect x="158" y="250" width="248" height="14" rx="7" fill="#D6DEE6"/>
  <rect x="158" y="278" width="212" height="14" rx="7" fill="#D6DEE6"/>
  <rect x="158" y="330" width="192" height="132" rx="22" fill="#F4E8D0"/>
  <rect x="368" y="330" width="202" height="132" rx="22" fill="#E6EEF2"/>
  <rect x="1014" y="264" width="420" height="238" rx="24" fill="url(#panel)"/>
  <circle cx="448" cy="648" r="138" fill="#EEF3F5"/>
  <path d="M372 662C396 613 442 572 505 549C570 526 639 524 694 544C749 564 786 598 809 628" stroke="#5B6F7E" stroke-width="18" stroke-linecap="round"/>
  <path d="M270 704C309 631 366 570 442 525C522 478 608 456 705 458C812 460 906 495 980 552C1038 596 1087 657 1126 734" stroke="#405563" stroke-width="28" stroke-linecap="round"/>
  <path d="M374 250C468 149 612 106 739 143C832 170 899 230 946 313" stroke="#C5802E" stroke-width="8" stroke-linecap="round" stroke-dasharray="3 22"/>
  <path d="M962 328C1023 225 1121 163 1227 149C1310 138 1389 157 1450 204" stroke="#C5802E" stroke-width="8" stroke-linecap="round" stroke-dasharray="3 22"/>
  <circle cx="374" cy="250" r="11" fill="#C5802E"/>
  <circle cx="962" cy="328" r="12" fill="#C5802E"/>
  <circle cx="1450" cy="204" r="11" fill="#C5802E"/>
  <circle cx="960" cy="328" r="28" fill="#D88A34"/>
  <path d="M945 328L959 290L976 328H945Z" fill="#FFF8EF"/>
  <rect x="1070" y="306" width="126" height="80" rx="18" fill="#F5FAFF"/>
  <rect x="1214" y="306" width="154" height="80" rx="18" fill="#F3D7D7"/>
  <rect x="1070" y="402" width="154" height="72" rx="18" fill="#F3D7D7"/>
  <rect x="1240" y="402" width="128" height="72" rx="18" fill="#F5FAFF"/>
  <path d="M432 602L468 632L540 574" stroke="#D88A34" stroke-width="14" stroke-linecap="round" stroke-linejoin="round"/>
  <path d="M1136 648C1168 623 1224 620 1264 645" stroke="#405563" stroke-width="8" stroke-linecap="round"/>
  <path d="M156 546H570" stroke="#D4C6B4" stroke-width="4" stroke-linecap="round"/>
  <path d="M1014 594H1428" stroke="#CAD3DA" stroke-width="4" stroke-linecap="round"/>
  <defs>
    <linearGradient id="bg" x1="800" y1="0" x2="800" y2="900" gradientUnits="userSpaceOnUse">
      <stop stop-color="#F8F3E8"/>
      <stop offset="0.52" stop-color="#E8E2D5"/>
      <stop offset="1" stop-color="#C5D4DC"/>
    </linearGradient>
    <linearGradient id="panel" x1="1224" y1="264" x2="1224" y2="502" gradientUnits="userSpaceOnUse">
      <stop stop-color="#F7FAFD"/>
      <stop offset="1" stop-color="#E6EDF4"/>
    </linearGradient>
  </defs>
</svg>
