<svg width="1600" height="900" viewBox="0 0 1600 900" fill="none" xmlns="http://www.w3.org/2000/svg">
  <rect width="1600" height="900" rx="36" fill="#F3EDE3"/>
  <rect width="1600" height="900" rx="36" fill="url(#bg)"/>
  <circle cx="1336" cy="162" r="104" fill="#FFD6A0" fill-opacity="0.52"/>
  <circle cx="1284" cy="748" r="182" fill="#B8D9D7" fill-opacity="0.42"/>
  <circle cx="244" cy="150" r="148" fill="#D9E4F2" fill-opacity="0.66"/>
  <rect x="74" y="90" width="1452" height="718" rx="34" fill="#FFFBF5" fill-opacity="0.92" stroke="#D9CCBC"/>
  <path d="M228 606C314 506 406 428 524 366C666 292 824 258 978 274C1086 284 1184 324 1272 388C1336 434 1386 496 1414 556" stroke="#D96F42" stroke-width="18" stroke-linecap="round" stroke-dasharray="14 18"/>
  <path d="M1194 420L1228 388L1238 422L1274 434L1242 450L1233 484L1212 458L1176 456L1194 420Z" fill="#D96F42"/>
  <rect x="138" y="168" width="308" height="226" rx="24" fill="#FFF7EC" stroke="#E2D5C4"/>
  <text x="172" y="228" fill="#8B684D" font-family="Georgia, 'Times New Roman', serif" font-size="32" font-weight="700">Dubrovnik</text>
  <text x="172" y="270" fill="#4E5A54" font-family="Arial, sans-serif" font-size="22">High-impact old town stay</text>
  <rect x="172" y="306" width="128" height="12" rx="6" fill="#C67B4D"/>
  <rect x="172" y="337" width="188" height="12" rx="6" fill="#D89B68"/>
  <rect x="172" y="368" width="154" height="12" rx="6" fill="#E7BA91"/>
  <path d="M356 328L386 278L416 328H356Z" fill="#9B714E"/>
  <rect x="369" y="328" width="34" height="38" rx="8" fill="#9B714E"/>
  <rect x="1114" y="516" width="330" height="220" rx="24" fill="#F8F4ED" stroke="#DED0C1"/>
  <text x="1148" y="576" fill="#8B684D" font-family="Georgia, 'Times New Roman', serif" font-size="32" font-weight="700">Kotor</text>
  <text x="1148" y="618" fill="#4E5A54" font-family="Arial, sans-serif" font-size="22">Bay views + quieter base</text>
  <rect x="1148" y="654" width="144" height="12" rx="6" fill="#3F7D7B"/>
  <rect x="1148" y="685" width="194" height="12" rx="6" fill="#66AAA8"/>
  <rect x="1148" y="716" width="162" height="12" rx="6" fill="#91C5C3"/>
  <path d="M1386 664C1418 664 1442 688 1442 720C1442 752 1418 776 1386 776C1356 776 1332 752 1332 722C1332 698 1348 678 1370 670" fill="#4C8F8D"/>
  <path d="M1386 672C1372 694 1368 714 1368 742" stroke="#2D6664" stroke-width="8" stroke-linecap="round"/>
  <rect x="486" y="126" width="628" height="638" rx="30" fill="#FFFDF9" stroke="#E4D8CB"/>
  <text x="552" y="204" fill="#22313A" font-family="Georgia, 'Times New Roman', serif" font-size="50" font-weight="700">US to Adriatic</text>
  <text x="552" y="260" fill="#22313A" font-family="Georgia, 'Times New Roman', serif" font-size="50" font-weight="700">Summer 2026 Balance</text>
  <text x="553" y="318" fill="#6B7278" font-family="Arial, sans-serif" font-size="24">Dubrovnik, Split, Kotor</text>
  <rect x="552" y="372" width="496" height="136" rx="22" fill="#F4EEE5"/>
  <text x="586" y="422" fill="#8B684D" font-family="Arial, sans-serif" font-size="22" font-weight="700">Compare:</text>
  <text x="586" y="462" fill="#43515A" font-family="Arial, sans-serif" font-size="22">Airport access, first-night hotel logic, transfer friction</text>
  <rect x="552" y="538" width="496" height="148" rx="22" fill="#ECF5F3"/>
  <text x="586" y="590" fill="#5B7C67" font-family="Arial, sans-serif" font-size="22" font-weight="700">Best read:</text>
  <text x="586" y="630" fill="#43515A" font-family="Arial, sans-serif" font-size="22">Do not price the fare alone. Read the first two nights together.</text>
  <g opacity="0.92">
    <rect x="1118" y="168" width="262" height="146" rx="24" fill="#F3F8FB" stroke="#D8E5F0"/>
    <text x="1152" y="224" fill="#5B7890" font-family="Arial, sans-serif" font-size="22" font-weight="700">Split</text>
    <text x="1152" y="260" fill="#43515A" font-family="Arial, sans-serif" font-size="20">City + island gateway</text>
    <path d="M1298 268C1318 240 1356 240 1376 268" stroke="#5F99C9" stroke-width="8" stroke-linecap="round"/>
    <path d="M1286 276C1316 252 1360 252 1390 276" stroke="#89B9DE" stroke-width="8" stroke-linecap="round"/>
  </g>
  <g opacity="0.9">
    <rect x="286" y="586" width="214" height="142" rx="24" fill="#F2F6FA" stroke="#D7E2F2"/>
    <text x="320" y="646" fill="#5F7388" font-family="Arial, sans-serif" font-size="22" font-weight="700">Hotel Pressure</text>
    <text x="320" y="684" fill="#43515A" font-family="Arial, sans-serif" font-size="20">Core stay vs transfer ease</text>
  </g>
  <defs>
    <linearGradient id="bg" x1="116" y1="74" x2="1470" y2="862" gradientUnits="userSpaceOnUse">
      <stop stop-color="#F4EBDD"/>
      <stop offset="0.44" stop-color="#F8F4EC"/>
      <stop offset="1" stop-color="#E6F1EE"/>
    </linearGradient>
  </defs>
</svg>
