<svg width="1600" height="900" viewBox="0 0 1600 900" fill="none" xmlns="http://www.w3.org/2000/svg">
  <defs>
    <linearGradient id="bg" x1="154" y1="76" x2="1450" y2="834" gradientUnits="userSpaceOnUse">
      <stop offset="0" stop-color="#F8F6F0"/>
      <stop offset="0.48" stop-color="#EEF6F9"/>
      <stop offset="1" stop-color="#E8EEF8"/>
    </linearGradient>
    <linearGradient id="card" x1="0" y1="0" x2="1" y2="1">
      <stop offset="0" stop-color="#FFFFFF"/>
      <stop offset="1" stop-color="#F5F7FB"/>
    </linearGradient>
    <linearGradient id="route" x1="0" y1="0" x2="1" y2="1">
      <stop offset="0" stop-color="#C2410C"/>
      <stop offset="0.52" stop-color="#0F766E"/>
      <stop offset="1" stop-color="#1D4ED8"/>
    </linearGradient>
    <filter id="shadow" x="-20%" y="-20%" width="140%" height="140%">
      <feDropShadow dx="0" dy="22" stdDeviation="24" flood-color="#0F172A" flood-opacity="0.12"/>
    </filter>
  </defs>

  <rect width="1600" height="900" fill="url(#bg)"/>
  <circle cx="1324" cy="168" r="154" fill="#FFF7ED" opacity="0.92"/>
  <circle cx="236" cy="744" r="212" fill="#DCEAFE" opacity="0.78"/>
  <circle cx="1310" cy="746" r="148" fill="#DDF7E9" opacity="0.74"/>

  <g opacity="0.2">
    <path d="M250 364C384 256 526 226 682 250C824 272 922 366 1038 376C1134 384 1222 344 1350 244" stroke="#334155" stroke-width="10" stroke-linecap="round"/>
    <path d="M300 440C426 352 566 336 688 360C802 382 900 438 1008 452C1116 466 1216 446 1334 392" stroke="#334155" stroke-width="10" stroke-linecap="round"/>
  </g>

  <g filter="url(#shadow)">
    <rect x="110" y="92" width="720" height="270" rx="40" fill="url(#card)"/>
  </g>
  <text x="160" y="176" fill="#0F172A" font-family="Georgia, 'Times New Roman', serif" font-size="56" font-weight="700">
    Europe Entry 2026
  </text>
  <text x="160" y="238" fill="#0F172A" font-family="Georgia, 'Times New Roman', serif" font-size="56" font-weight="700">
    First-Night Hotel Logic
  </text>
  <text x="160" y="292" fill="#475569" font-family="Arial, Helvetica, sans-serif" font-size="28">
    ETIAS not live yet. EES is live. Plan the arrival, not just the city.
  </text>

  <g>
    <path d="M274 518C404 432 560 410 700 434C808 452 904 500 1014 516C1128 534 1228 512 1354 422" stroke="url(#route)" stroke-width="12" stroke-linecap="round" stroke-dasharray="16 18"/>
    <circle cx="274" cy="518" r="14" fill="#C2410C"/>
    <circle cx="1354" cy="422" r="14" fill="#1D4ED8"/>
    <path d="M822 452L848 462L838 482L852 502L828 510L816 492L792 498L800 478L776 466L802 456L800 432L818 446L842 436L838 454L862 456L822 452Z" fill="#0F172A"/>
  </g>

  <g filter="url(#shadow)">
    <rect x="170" y="594" width="304" height="174" rx="30" fill="url(#card)"/>
    <rect x="518" y="454" width="304" height="174" rx="30" fill="url(#card)"/>
    <rect x="866" y="594" width="304" height="174" rx="30" fill="url(#card)"/>
    <rect x="1160" y="332" width="286" height="236" rx="32" fill="url(#card)"/>
  </g>

  <g>
    <text x="204" y="648" fill="#0F172A" font-family="Arial, Helvetica, sans-serif" font-size="34" font-weight="700">ETIAS</text>
    <text x="204" y="694" fill="#475569" font-family="Arial, Helvetica, sans-serif" font-size="24">Not yet live on</text>
    <text x="204" y="726" fill="#475569" font-family="Arial, Helvetica, sans-serif" font-size="24">June 17, 2026</text>
    <rect x="204" y="744" width="156" height="12" rx="6" fill="#CBD5E1"/>
  </g>

  <g>
    <text x="552" y="508" fill="#0F172A" font-family="Arial, Helvetica, sans-serif" font-size="34" font-weight="700">EES</text>
    <text x="552" y="554" fill="#475569" font-family="Arial, Helvetica, sans-serif" font-size="24">Fully operational</text>
    <text x="552" y="586" fill="#475569" font-family="Arial, Helvetica, sans-serif" font-size="24">since April 10, 2026</text>
    <rect x="552" y="604" width="184" height="12" rx="6" fill="#99F6E4"/>
  </g>

  <g>
    <text x="900" y="648" fill="#0F172A" font-family="Arial, Helvetica, sans-serif" font-size="34" font-weight="700">Night One</text>
    <text x="900" y="694" fill="#475569" font-family="Arial, Helvetica, sans-serif" font-size="24">Choose transfer ease,</text>
    <text x="900" y="726" fill="#475569" font-family="Arial, Helvetica, sans-serif" font-size="24">not postcard drama</text>
    <rect x="900" y="744" width="198" height="12" rx="6" fill="#BFDBFE"/>
  </g>

  <g>
    <text x="1192" y="402" fill="#0F172A" font-family="Arial, Helvetica, sans-serif" font-size="30" font-weight="700">Arrival checklist</text>
    <text x="1192" y="450" fill="#334155" font-family="Arial, Helvetica, sans-serif" font-size="22">1. Check arrival time</text>
    <text x="1192" y="486" fill="#334155" font-family="Arial, Helvetica, sans-serif" font-size="22">2. Prioritize direct transfer</text>
    <text x="1192" y="522" fill="#334155" font-family="Arial, Helvetica, sans-serif" font-size="22">3. Avoid hard late-night walks</text>
  </g>
</svg>
