<svg width="1600" height="900" viewBox="0 0 1600 900" fill="none" xmlns="http://www.w3.org/2000/svg">
  <rect width="1600" height="900" fill="#F4EFE6"/>
  <rect x="0" y="0" width="1600" height="900" fill="url(#bg)"/>
  <circle cx="1315" cy="142" r="86" fill="#FFD9A8" fill-opacity="0.82"/>
  <path d="M0 682C144 623 305 605 445 629C601 655 703 744 861 747C1028 750 1136 664 1285 645C1416 628 1513 655 1600 695V900H0V682Z" fill="#C6D6E7"/>
  <path d="M0 731C144 696 283 693 414 714C556 737 667 795 814 799C961 804 1078 750 1228 730C1380 710 1491 727 1600 771V900H0V731Z" fill="#9CB7D2"/>
  <g opacity="0.95">
    <rect x="120" y="272" width="66" height="328" rx="6" fill="#263954"/>
    <rect x="193" y="211" width="110" height="389" rx="6" fill="#31466A"/>
    <rect x="312" y="176" width="96" height="424" rx="6" fill="#23324C"/>
    <rect x="421" y="125" width="88" height="475" rx="6" fill="#31466A"/>
    <rect x="522" y="240" width="74" height="360" rx="6" fill="#263954"/>
    <rect x="611" y="145" width="129" height="455" rx="6" fill="#213149"/>
    <rect x="748" y="95" width="84" height="505" rx="6" fill="#384F77"/>
    <rect x="841" y="194" width="101" height="406" rx="6" fill="#263954"/>
    <rect x="955" y="162" width="87" height="438" rx="6" fill="#23324C"/>
    <rect x="1057" y="233" width="76" height="367" rx="6" fill="#31466A"/>
    <rect x="1148" y="121" width="103" height="479" rx="6" fill="#223553"/>
    <rect x="1266" y="261" width="74" height="339" rx="6" fill="#31466A"/>
    <rect x="1352" y="196" width="134" height="404" rx="6" fill="#23324C"/>
  </g>
  <g fill="#F7E7C6" opacity="0.7">
    <rect x="220" y="260" width="10" height="10" rx="2"/>
    <rect x="220" y="286" width="10" height="10" rx="2"/>
    <rect x="246" y="260" width="10" height="10" rx="2"/>
    <rect x="246" y="286" width="10" height="10" rx="2"/>
    <rect x="343" y="220" width="10" height="10" rx="2"/>
    <rect x="343" y="246" width="10" height="10" rx="2"/>
    <rect x="369" y="220" width="10" height="10" rx="2"/>
    <rect x="369" y="246" width="10" height="10" rx="2"/>
    <rect x="453" y="168" width="10" height="10" rx="2"/>
    <rect x="453" y="194" width="10" height="10" rx="2"/>
    <rect x="479" y="168" width="10" height="10" rx="2"/>
    <rect x="479" y="194" width="10" height="10" rx="2"/>
    <rect x="649" y="184" width="10" height="10" rx="2"/>
    <rect x="649" y="210" width="10" height="10" rx="2"/>
    <rect x="675" y="184" width="10" height="10" rx="2"/>
    <rect x="675" y="210" width="10" height="10" rx="2"/>
    <rect x="780" y="133" width="10" height="10" rx="2"/>
    <rect x="780" y="159" width="10" height="10" rx="2"/>
    <rect x="1184" y="157" width="10" height="10" rx="2"/>
    <rect x="1184" y="183" width="10" height="10" rx="2"/>
    <rect x="1210" y="157" width="10" height="10" rx="2"/>
    <rect x="1210" y="183" width="10" height="10" rx="2"/>
    <rect x="1390" y="234" width="10" height="10" rx="2"/>
    <rect x="1390" y="260" width="10" height="10" rx="2"/>
    <rect x="1416" y="234" width="10" height="10" rx="2"/>
    <rect x="1416" y="260" width="10" height="10" rx="2"/>
  </g>
  <rect x="88" y="72" width="704" height="194" rx="34" fill="#FFF9F1" fill-opacity="0.94"/>
  <text x="132" y="138" fill="#24364D" font-family="Arial, Helvetica, sans-serif" font-size="34" font-weight="700">
    Avrupa'dan Amerika'ya ilk New York seyahati
  </text>
  <text x="132" y="194" fill="#24364D" font-family="Arial, Helvetica, sans-serif" font-size="58" font-weight="800">
    Midtown mu, LIC mi,
  </text>
  <text x="132" y="248" fill="#24364D" font-family="Arial, Helvetica, sans-serif" font-size="58" font-weight="800">
    Downtown Brooklyn mi?
  </text>
  <g filter="url(#shadow)">
    <rect x="165" y="580" width="360" height="182" rx="28" fill="#FFFDF8"/>
    <rect x="620" y="534" width="360" height="228" rx="28" fill="#FFFDF8"/>
    <rect x="1075" y="580" width="360" height="182" rx="28" fill="#FFFDF8"/>
  </g>
  <rect x="190" y="606" width="112" height="34" rx="17" fill="#163B67"/>
  <text x="212" y="629" fill="#FFFDF8" font-family="Arial, Helvetica, sans-serif" font-size="20" font-weight="700">Midtown</text>
  <text x="190" y="674" fill="#24364D" font-family="Arial, Helvetica, sans-serif" font-size="26" font-weight="700">En kolay ilk ziyaret</text>
  <text x="190" y="713" fill="#576B82" font-family="Arial, Helvetica, sans-serif" font-size="22">Merkez rahat, otel baskisi yuksek</text>
  <rect x="645" y="560" width="154" height="34" rx="17" fill="#356C8E"/>
  <text x="668" y="583" fill="#FFFDF8" font-family="Arial, Helvetica, sans-serif" font-size="20" font-weight="700">Long Island City</text>
  <text x="645" y="628" fill="#24364D" font-family="Arial, Helvetica, sans-serif" font-size="30" font-weight="800">En dengeli secim</text>
  <text x="645" y="669" fill="#576B82" font-family="Arial, Helvetica, sans-serif" font-size="22">Metro guclu, fiyat daha temiz</text>
  <text x="645" y="706" fill="#576B82" font-family="Arial, Helvetica, sans-serif" font-size="22">Ilk gun yorgunlugunu azaltabilir</text>
  <rect x="1100" y="606" width="190" height="34" rx="17" fill="#5E7F4E"/>
  <text x="1122" y="629" fill="#FFFDF8" font-family="Arial, Helvetica, sans-serif" font-size="20" font-weight="700">Downtown Brooklyn</text>
  <text x="1100" y="674" fill="#24364D" font-family="Arial, Helvetica, sans-serif" font-size="26" font-weight="700">Karakter + erisim</text>
  <text x="1100" y="713" fill="#576B82" font-family="Arial, Helvetica, sans-serif" font-size="22">Daha yerel his, guclu baglanti</text>
  <defs>
    <linearGradient id="bg" x1="800" y1="0" x2="800" y2="900" gradientUnits="userSpaceOnUse">
      <stop stop-color="#F5D7BF"/>
      <stop offset="0.48" stop-color="#D9E6F0"/>
      <stop offset="1" stop-color="#EAF0F7"/>
    </linearGradient>
    <filter id="shadow" x="145" y="518" width="1310" height="264" filterUnits="userSpaceOnUse" color-interpolation-filters="sRGB">
      <feFlood flood-opacity="0" result="BackgroundImageFix"/>
      <feColorMatrix in="SourceAlpha" type="matrix" values="0 0 0 0 0 0 0 0 0 0 0 0 0 0 0 0 0 0 127 0" result="hardAlpha"/>
      <feOffset dy="10"/>
      <feGaussianBlur stdDeviation="10"/>
      <feComposite in2="hardAlpha" operator="out"/>
      <feColorMatrix type="matrix" values="0 0 0 0 0.145098 0 0 0 0 0.211765 0 0 0 0 0.301961 0 0 0 0.14 0"/>
      <feBlend mode="normal" in2="BackgroundImageFix" result="effect1_dropShadow_1_1"/>
      <feBlend mode="normal" in="SourceGraphic" in2="effect1_dropShadow_1_1" result="shape"/>
    </filter>
  </defs>
</svg>
