<svg width="1600" height="900" viewBox="0 0 1600 900" fill="none" xmlns="http://www.w3.org/2000/svg">
  <rect width="1600" height="900" fill="#F6F0E6"/>
  <rect width="1600" height="900" fill="url(#bg)"/>
  <circle cx="1318" cy="148" r="84" fill="#FFD8A6" fill-opacity="0.85"/>
  <path d="M0 684C116 654 255 632 389 650C523 668 653 734 804 748C977 764 1126 708 1269 687C1407 667 1518 688 1600 725V900H0V684Z" fill="#9FD5DB"/>
  <path d="M0 738C148 714 281 714 421 733C560 752 682 804 830 812C983 820 1098 781 1237 760C1384 738 1492 744 1600 783V900H0V738Z" fill="#68AFC0"/>
  <rect x="0" y="598" width="1600" height="64" fill="#E8C88D"/>
  <rect x="70" y="575" width="1460" height="24" fill="#F4E3BA"/>
  <g opacity="0.95">
    <rect x="125" y="327" width="118" height="248" rx="10" fill="#F7F3EC"/>
    <rect x="265" y="281" width="146" height="294" rx="10" fill="#FFF9F1"/>
    <rect x="442" y="238" width="164" height="337" rx="10" fill="#F7F3EC"/>
    <rect x="637" y="305" width="126" height="270" rx="10" fill="#FFF9F1"/>
    <rect x="797" y="262" width="140" height="313" rx="10" fill="#F7F3EC"/>
    <rect x="970" y="221" width="172" height="354" rx="10" fill="#FFF9F1"/>
    <rect x="1175" y="289" width="135" height="286" rx="10" fill="#F7F3EC"/>
    <rect x="1340" y="249" width="122" height="326" rx="10" fill="#FFF9F1"/>
  </g>
  <g fill="#84C8D4" opacity="0.7">
    <rect x="152" y="362" width="22" height="86" rx="11"/>
    <rect x="192" y="362" width="22" height="86" rx="11"/>
    <rect x="299" y="321" width="22" height="102" rx="11"/>
    <rect x="339" y="321" width="22" height="102" rx="11"/>
    <rect x="476" y="286" width="24" height="118" rx="12"/>
    <rect x="519" y="286" width="24" height="118" rx="12"/>
    <rect x="1006" y="270" width="25" height="126" rx="12.5"/>
    <rect x="1051" y="270" width="25" height="126" rx="12.5"/>
    <rect x="1370" y="301" width="22" height="108" rx="11"/>
    <rect x="1408" y="301" width="22" height="108" rx="11"/>
  </g>
  <g>
    <rect x="520" y="505" width="104" height="70" rx="18" fill="#E7B96D"/>
    <path d="M572 440C595 440 614 459 614 482V505H530V482C530 459 549 440 572 440Z" fill="#4A8F6D"/>
    <path d="M562 452C544 470 539 489 544 505H497C499 479 514 458 539 442L562 452Z" fill="#5BA07E"/>
    <path d="M583 452C601 470 606 489 601 505H648C646 479 631 458 606 442L583 452Z" fill="#5BA07E"/>
  </g>
  <rect x="88" y="72" width="822" height="194" rx="34" fill="#FFF9F1" fill-opacity="0.95"/>
  <text x="132" y="138" fill="#22405A" font-family="Arial, Helvetica, sans-serif" font-size="34" font-weight="700">
    Avrupa'dan Amerika'ya ilk Miami seyahati
  </text>
  <text x="132" y="194" fill="#22405A" font-family="Arial, Helvetica, sans-serif" font-size="58" font-weight="800">
    South Beach mi, Brickell mi,
  </text>
  <text x="132" y="248" fill="#22405A" font-family="Arial, Helvetica, sans-serif" font-size="58" font-weight="800">
    airport hotel mi?
  </text>
  <g filter="url(#shadow)">
    <rect x="140" y="586" width="380" height="178" rx="28" fill="#FFFDF8"/>
    <rect x="610" y="542" width="380" height="222" rx="28" fill="#FFFDF8"/>
    <rect x="1080" y="586" width="380" height="178" rx="28" fill="#FFFDF8"/>
  </g>
  <rect x="166" y="611" width="142" height="34" rx="17" fill="#1E5B85"/>
  <text x="191" y="634" fill="#FFFDF8" font-family="Arial, Helvetica, sans-serif" font-size="20" font-weight="700">South Beach</text>
  <text x="166" y="678" fill="#22405A" font-family="Arial, Helvetica, sans-serif" font-size="28" font-weight="800">Tatil hissi en guclu</text>
  <text x="166" y="718" fill="#5B7085" font-family="Arial, Helvetica, sans-serif" font-size="22">Plaj yakin, premium yuksek</text>
  <rect x="636" y="568" width="112" height="34" rx="17" fill="#2E7D78"/>
  <text x="664" y="591" fill="#FFFDF8" font-family="Arial, Helvetica, sans-serif" font-size="20" font-weight="700">Brickell</text>
  <text x="636" y="637" fill="#22405A" font-family="Arial, Helvetica, sans-serif" font-size="30" font-weight="800">En dengeli merkez</text>
  <text x="636" y="678" fill="#5B7085" font-family="Arial, Helvetica, sans-serif" font-size="22">Sehir ritmi daha temiz</text>
  <text x="636" y="715" fill="#5B7085" font-family="Arial, Helvetica, sans-serif" font-size="22">Yeme icme ve erisim guclu</text>
  <rect x="1106" y="611" width="150" height="34" rx="17" fill="#8A6C3C"/>
  <text x="1131" y="634" fill="#FFFDF8" font-family="Arial, Helvetica, sans-serif" font-size="20" font-weight="700">Airport hotel</text>
  <text x="1106" y="678" fill="#22405A" font-family="Arial, Helvetica, sans-serif" font-size="28" font-weight="800">Gec varista rahat</text>
  <text x="1106" y="718" fill="#5B7085" font-family="Arial, Helvetica, sans-serif" font-size="22">Ilk geceyi sade tutar</text>
  <defs>
    <linearGradient id="bg" x1="800" y1="0" x2="800" y2="900" gradientUnits="userSpaceOnUse">
      <stop stop-color="#F9DCC6"/>
      <stop offset="0.5" stop-color="#CFEAF1"/>
      <stop offset="1" stop-color="#ECF6F8"/>
    </linearGradient>
    <filter id="shadow" x="120" y="526" width="1360" height="258" filterUnits="userSpaceOnUse" color-interpolation-filters="sRGB">
      <feFlood flood-opacity="0" result="BackgroundImageFix"/>
      <feColorMatrix in="SourceAlpha" type="matrix" values="0 0 0 0 0 0 0 0 0 0 0 0 0 0 0 0 0 0 127 0" result="hardAlpha"/>
      <feOffset dy="10"/>
      <feGaussianBlur stdDeviation="10"/>
      <feComposite in2="hardAlpha" operator="out"/>
      <feColorMatrix type="matrix" values="0 0 0 0 0.133333 0 0 0 0 0.25098 0 0 0 0 0.352941 0 0 0 0.14 0"/>
      <feBlend mode="normal" in2="BackgroundImageFix" result="effect1_dropShadow_1_1"/>
      <feBlend mode="normal" in="SourceGraphic" in2="effect1_dropShadow_1_1" result="shape"/>
    </filter>
  </defs>
</svg>
