<svg width="1600" height="900" viewBox="0 0 1600 900" fill="none" xmlns="http://www.w3.org/2000/svg">
  <rect width="1600" height="900" fill="#F3F0EA"/>
  <rect width="1600" height="900" fill="url(#bg)"/>
  <circle cx="1314" cy="138" r="104" fill="#FDE68A" fill-opacity="0.7"/>
  <circle cx="246" cy="146" r="72" fill="#BFDBFE" fill-opacity="0.65"/>
  <path d="M0 696C145 654 308 640 474 658C640 676 779 728 948 726C1122 724 1290 663 1600 682V900H0V696Z" fill="#DDE5EA"/>
  <path d="M0 754C176 724 320 726 486 749C654 772 794 820 972 816C1143 812 1310 760 1600 780V900H0V754Z" fill="#BECAD3"/>
  <text x="92" y="110" fill="#0F172A" font-family="Arial, Helvetica, sans-serif" font-size="58" font-weight="700">Europe to USA Arrival City Guide</text>
  <text x="94" y="158" fill="#334155" font-family="Arial, Helvetica, sans-serif" font-size="28">New York vs Boston vs Washington for first-night hotel logic</text>
  <rect x="116" y="214" width="404" height="420" rx="32" fill="#FFFDFB" fill-opacity="0.96"/>
  <rect x="598" y="192" width="404" height="442" rx="32" fill="#FFFDFB" fill-opacity="0.97"/>
  <rect x="1080" y="226" width="404" height="408" rx="32" fill="#FFFDFB" fill-opacity="0.96"/>
  <text x="148" y="284" fill="#0F172A" font-family="Arial, Helvetica, sans-serif" font-size="38" font-weight="700">NEW YORK</text>
  <text x="148" y="330" fill="#475569" font-family="Arial, Helvetica, sans-serif" font-size="23">Max flight choice</text>
  <rect x="148" y="374" width="236" height="18" rx="9" fill="#C2410C"/>
  <rect x="148" y="420" width="304" height="18" rx="9" fill="#2563EB"/>
  <rect x="148" y="466" width="270" height="18" rx="9" fill="#DC2626"/>
  <text x="148" y="406" fill="#0F172A" font-family="Arial, Helvetica, sans-serif" font-size="20">Flight network</text>
  <text x="148" y="452" fill="#0F172A" font-family="Arial, Helvetica, sans-serif" font-size="20">Airport access</text>
  <text x="148" y="498" fill="#0F172A" font-family="Arial, Helvetica, sans-serif" font-size="20">First-night hotel pressure</text>
  <text x="148" y="574" fill="#1D4ED8" font-family="Arial, Helvetica, sans-serif" font-size="48" font-weight="700">Biggest Hub</text>
  <text x="630" y="262" fill="#0F172A" font-family="Arial, Helvetica, sans-serif" font-size="38" font-weight="700">BOSTON</text>
  <text x="630" y="308" fill="#475569" font-family="Arial, Helvetica, sans-serif" font-size="23">Smooth first 24h</text>
  <rect x="630" y="352" width="194" height="18" rx="9" fill="#C2410C"/>
  <rect x="630" y="398" width="280" height="18" rx="9" fill="#2563EB"/>
  <rect x="630" y="444" width="182" height="18" rx="9" fill="#16A34A"/>
  <text x="630" y="384" fill="#0F172A" font-family="Arial, Helvetica, sans-serif" font-size="20">Flight network</text>
  <text x="630" y="430" fill="#0F172A" font-family="Arial, Helvetica, sans-serif" font-size="20">Airport access</text>
  <text x="630" y="476" fill="#0F172A" font-family="Arial, Helvetica, sans-serif" font-size="20">First-night hotel pressure</text>
  <text x="630" y="552" fill="#047857" font-family="Arial, Helvetica, sans-serif" font-size="48" font-weight="700">Low Friction</text>
  <text x="1112" y="296" fill="#0F172A" font-family="Arial, Helvetica, sans-serif" font-size="38" font-weight="700">WASHINGTON</text>
  <text x="1112" y="342" fill="#475569" font-family="Arial, Helvetica, sans-serif" font-size="23">Balanced start</text>
  <rect x="1112" y="386" width="212" height="18" rx="9" fill="#C2410C"/>
  <rect x="1112" y="432" width="246" height="18" rx="9" fill="#2563EB"/>
  <rect x="1112" y="478" width="210" height="18" rx="9" fill="#F59E0B"/>
  <text x="1112" y="418" fill="#0F172A" font-family="Arial, Helvetica, sans-serif" font-size="20">Flight network</text>
  <text x="1112" y="464" fill="#0F172A" font-family="Arial, Helvetica, sans-serif" font-size="20">Airport access</text>
  <text x="1112" y="510" fill="#0F172A" font-family="Arial, Helvetica, sans-serif" font-size="20">First-night hotel pressure</text>
  <text x="1112" y="586" fill="#B45309" font-family="Arial, Helvetica, sans-serif" font-size="48" font-weight="700">Balanced</text>
  <path d="M294 718C420 664 548 654 676 688C758 710 836 752 910 790" stroke="#7C8FA0" stroke-width="18" stroke-linecap="round"/>
  <path d="M914 790C982 734 1060 686 1148 664C1230 642 1320 646 1404 678" stroke="#7C8FA0" stroke-width="18" stroke-linecap="round"/>
  <path d="M312 684C412 578 534 504 670 474C790 448 896 462 1006 514" stroke="#D97706" stroke-width="8" stroke-linecap="round" stroke-dasharray="4 20"/>
  <circle cx="312" cy="684" r="13" fill="#D97706"/>
  <circle cx="858" cy="490" r="13" fill="#D97706"/>
  <circle cx="1404" cy="678" r="13" fill="#D97706"/>
  <path d="M842 490L858 448L876 490H842Z" fill="#DC2626"/>
  <rect x="214" y="760" width="66" height="80" fill="#0F172A"/>
  <rect x="290" y="704" width="74" height="136" fill="#1E293B"/>
  <rect x="374" y="628" width="86" height="212" fill="#0F172A"/>
  <rect x="470" y="676" width="70" height="164" fill="#334155"/>
  <rect x="998" y="734" width="62" height="106" fill="#0F172A"/>
  <rect x="1072" y="672" width="78" height="168" fill="#1E293B"/>
  <rect x="1160" y="606" width="92" height="234" fill="#0F172A"/>
  <rect x="1262" y="654" width="72" height="186" fill="#334155"/>
  <defs>
    <linearGradient id="bg" x1="236" y1="42" x2="1360" y2="862" gradientUnits="userSpaceOnUse">
      <stop stop-color="#E8F0FF"/>
      <stop offset="0.5" stop-color="#F8FAFC"/>
      <stop offset="1" stop-color="#E4DDD2"/>
    </linearGradient>
  </defs>
</svg>
