<svg width="1600" height="900" viewBox="0 0 1600 900" fill="none" xmlns="http://www.w3.org/2000/svg">
  <defs>
    <linearGradient id="bg" x1="122" y1="84" x2="1462" y2="816" gradientUnits="userSpaceOnUse">
      <stop offset="0" stop-color="#FFF6E9"/>
      <stop offset="0.45" stop-color="#F2F8FF"/>
      <stop offset="1" stop-color="#E8F5EF"/>
    </linearGradient>
    <linearGradient id="panel" x1="0" y1="0" x2="1" y2="1">
      <stop offset="0" stop-color="#FFFFFF"/>
      <stop offset="1" stop-color="#F7FAFC"/>
    </linearGradient>
    <linearGradient id="route" x1="268" y1="478" x2="1328" y2="432" gradientUnits="userSpaceOnUse">
      <stop offset="0" stop-color="#C2410C"/>
      <stop offset="0.48" stop-color="#1D4ED8"/>
      <stop offset="1" stop-color="#0F766E"/>
    </linearGradient>
    <filter id="shadow" x="-20%" y="-20%" width="140%" height="140%">
      <feDropShadow dx="0" dy="18" stdDeviation="24" flood-color="#0F172A" flood-opacity="0.12"/>
    </filter>
  </defs>

  <rect width="1600" height="900" fill="url(#bg)"/>
  <circle cx="1322" cy="166" r="154" fill="#FFF1C9" opacity="0.86"/>
  <circle cx="214" cy="754" r="214" fill="#DBEAFE" opacity="0.74"/>
  <circle cx="1338" cy="742" r="132" fill="#D1FAE5" opacity="0.76"/>

  <g opacity="0.16">
    <path d="M232 322C394 228 530 206 674 238C784 262 886 330 1000 344C1118 358 1212 322 1364 222" stroke="#334155" stroke-width="10" stroke-linecap="round"/>
    <path d="M284 402C414 334 560 316 678 338C790 360 886 414 1000 430C1110 444 1208 432 1336 384" stroke="#334155" stroke-width="10" stroke-linecap="round"/>
  </g>

  <g filter="url(#shadow)">
    <rect x="112" y="94" width="760" height="246" rx="36" fill="url(#panel)"/>
  </g>
  <text x="162" y="176" fill="#0F172A" font-family="Georgia, 'Times New Roman', serif" font-size="56" font-weight="700">
    Summer 2026
  </text>
  <text x="162" y="238" fill="#0F172A" font-family="Georgia, 'Times New Roman', serif" font-size="56" font-weight="700">
    US Host City Balance
  </text>
  <text x="162" y="290" fill="#475569" font-family="Arial, Helvetica, sans-serif" font-size="28">
    New York, Boston and Seattle beyond headline airfare
  </text>

  <g>
    <path d="M268 492C410 420 548 402 688 422C802 438 906 492 1020 508C1130 524 1230 502 1328 432" stroke="url(#route)" stroke-width="12" stroke-linecap="round" stroke-dasharray="14 18"/>
    <circle cx="268" cy="492" r="14" fill="#C2410C"/>
    <circle cx="1328" cy="432" r="14" fill="#0F766E"/>
    <path d="M786 438L818 450L804 472L824 490L796 500L784 480L754 488L766 468L738 454L768 446L766 418L786 434L816 422L812 442L840 444L786 438Z" fill="#0F172A"/>
  </g>

  <g filter="url(#shadow)">
    <rect x="148" y="578" width="288" height="182" rx="30" fill="url(#panel)"/>
    <rect x="488" y="452" width="286" height="182" rx="30" fill="url(#panel)"/>
    <rect x="826" y="578" width="286" height="182" rx="30" fill="url(#panel)"/>
    <rect x="1142" y="350" width="308" height="206" rx="30" fill="url(#panel)"/>
  </g>

  <g>
    <text x="184" y="634" fill="#0F172A" font-family="Arial, Helvetica, sans-serif" font-size="36" font-weight="700">New York</text>
    <text x="184" y="680" fill="#475569" font-family="Arial, Helvetica, sans-serif" font-size="24">Flight depth, high hotel pressure</text>
    <rect x="184" y="706" width="196" height="14" rx="7" fill="#C2410C"/>
    <rect x="184" y="732" width="148" height="12" rx="6" fill="#CBD5E1"/>
  </g>

  <g>
    <text x="524" y="508" fill="#0F172A" font-family="Arial, Helvetica, sans-serif" font-size="36" font-weight="700">Boston</text>
    <text x="524" y="554" fill="#475569" font-family="Arial, Helvetica, sans-serif" font-size="24">Cleaner short-stay rhythm</text>
    <rect x="524" y="580" width="186" height="14" rx="7" fill="#1D4ED8"/>
    <rect x="524" y="606" width="144" height="12" rx="6" fill="#CBD5E1"/>
  </g>

  <g>
    <text x="862" y="634" fill="#0F172A" font-family="Arial, Helvetica, sans-serif" font-size="36" font-weight="700">Seattle</text>
    <text x="862" y="680" fill="#475569" font-family="Arial, Helvetica, sans-serif" font-size="24">Longer flight, calmer tempo</text>
    <rect x="862" y="706" width="178" height="14" rx="7" fill="#0F766E"/>
    <rect x="862" y="732" width="136" height="12" rx="6" fill="#CBD5E1"/>
  </g>

  <g opacity="0.96">
    <rect x="1186" y="126" width="210" height="110" rx="24" fill="#0F172A"/>
    <text x="1224" y="172" fill="#F8FAFC" font-family="Arial, Helvetica, sans-serif" font-size="24" font-weight="700">June 2026</text>
    <text x="1224" y="208" fill="#CBD5E1" font-family="Arial, Helvetica, sans-serif" font-size="22">Search heat + hotel logic</text>
  </g>

  <g>
    <text x="1174" y="420" fill="#0F172A" font-family="Arial, Helvetica, sans-serif" font-size="34" font-weight="700">Event-period signal</text>
    <text x="1174" y="464" fill="#475569" font-family="Arial, Helvetica, sans-serif" font-size="24">High host-city demand changes stay math</text>
    <text x="1174" y="502" fill="#1D4ED8" font-family="Arial, Helvetica, sans-serif" font-size="26" font-weight="700">Short trips reward one well-located hotel</text>
  </g>
</svg>
