<svg width="1600" height="900" viewBox="0 0 1600 900" fill="none" xmlns="http://www.w3.org/2000/svg">
  <defs>
    <linearGradient id="bg" x1="120" y1="80" x2="1480" y2="820" gradientUnits="userSpaceOnUse">
      <stop offset="0" stop-color="#FFF5E8"/>
      <stop offset="0.5" stop-color="#E6F0FF"/>
      <stop offset="1" stop-color="#D8F3E8"/>
    </linearGradient>
    <linearGradient id="card" x1="0" y1="0" x2="1" y2="1">
      <stop offset="0" stop-color="#FFFFFF"/>
      <stop offset="1" stop-color="#F4F7FB"/>
    </linearGradient>
    <linearGradient id="route" x1="0" y1="0" x2="1" y2="1">
      <stop offset="0" stop-color="#EA580C"/>
      <stop offset="1" stop-color="#0F766E"/>
    </linearGradient>
    <filter id="shadow" x="-20%" y="-20%" width="140%" height="140%">
      <feDropShadow dx="0" dy="18" stdDeviation="20" flood-color="#1E293B" flood-opacity="0.14"/>
    </filter>
  </defs>

  <rect width="1600" height="900" fill="url(#bg)"/>
  <circle cx="210" cy="160" r="150" fill="#FDE68A" opacity="0.35"/>
  <circle cx="1360" cy="720" r="220" fill="#BFDBFE" opacity="0.35"/>
  <circle cx="1290" cy="150" r="130" fill="#DCFCE7" opacity="0.5"/>

  <g opacity="0.18">
    <path d="M220 525C340 430 480 392 622 414C766 437 852 545 980 551C1093 556 1204 498 1325 408" stroke="#334155" stroke-width="11" stroke-linecap="round"/>
    <path d="M274 615C408 543 549 522 662 537C770 552 877 620 1007 626C1114 631 1212 592 1320 530" stroke="#334155" stroke-width="11" stroke-linecap="round"/>
  </g>

  <g filter="url(#shadow)">
    <rect x="122" y="94" width="640" height="236" rx="34" fill="url(#card)"/>
  </g>
  <text x="168" y="164" fill="#0F172A" font-family="Georgia, 'Times New Roman', serif" font-size="60" font-weight="700">
    Europe to USA
  </text>
  <text x="168" y="224" fill="#0F172A" font-family="Georgia, 'Times New Roman', serif" font-size="60" font-weight="700">
    World Cup 2026 Hosts
  </text>
  <text x="168" y="278" fill="#475569" font-family="Arial, Helvetica, sans-serif" font-size="28">
    New York New Jersey, Atlanta, Dallas
  </text>

  <g>
    <path d="M332 490C492 390 646 383 809 431C928 466 1003 540 1097 535C1184 530 1256 480 1327 419" stroke="url(#route)" stroke-width="12" stroke-linecap="round" stroke-dasharray="16 20"/>
    <circle cx="332" cy="490" r="14" fill="#EA580C"/>
    <circle cx="1327" cy="419" r="14" fill="#0F766E"/>
    <path d="M841 443L872 454L854 467L868 492L848 499L835 474L809 482L817 461L790 449L817 439L816 413L834 431L859 418L856 439L880 444L841 443Z" fill="#0F172A"/>
  </g>

  <g filter="url(#shadow)">
    <rect x="192" y="604" width="296" height="172" rx="28" fill="url(#card)"/>
    <rect x="560" y="458" width="296" height="172" rx="28" fill="url(#card)"/>
    <rect x="948" y="594" width="296" height="172" rx="28" fill="url(#card)"/>
  </g>

  <g>
    <text x="226" y="662" fill="#0F172A" font-family="Arial, Helvetica, sans-serif" font-size="34" font-weight="700">New York / NJ</text>
    <text x="226" y="706" fill="#475569" font-family="Arial, Helvetica, sans-serif" font-size="24">Final city, highest pressure</text>
    <rect x="226" y="730" width="198" height="14" rx="7" fill="#F97316"/>
    <rect x="226" y="754" width="150" height="12" rx="6" fill="#CBD5E1"/>
  </g>

  <g>
    <text x="594" y="516" fill="#0F172A" font-family="Arial, Helvetica, sans-serif" font-size="34" font-weight="700">Atlanta</text>
    <text x="594" y="560" fill="#475569" font-family="Arial, Helvetica, sans-serif" font-size="24">Best gateway balance</text>
    <rect x="594" y="584" width="164" height="14" rx="7" fill="#0EA5E9"/>
    <rect x="594" y="608" width="142" height="12" rx="6" fill="#CBD5E1"/>
  </g>

  <g>
    <text x="982" y="652" fill="#0F172A" font-family="Arial, Helvetica, sans-serif" font-size="34" font-weight="700">Dallas</text>
    <text x="982" y="696" fill="#475569" font-family="Arial, Helvetica, sans-serif" font-size="24">Most matches, football-first</text>
    <rect x="982" y="720" width="188" height="14" rx="7" fill="#10B981"/>
    <rect x="982" y="744" width="136" height="12" rx="6" fill="#CBD5E1"/>
  </g>

  <g opacity="0.94">
    <rect x="1190" y="130" width="232" height="118" rx="24" fill="#0F172A"/>
    <text x="1228" y="182" fill="#F8FAFC" font-family="Arial, Helvetica, sans-serif" font-size="24" font-weight="700">SEO angle</text>
    <text x="1228" y="218" fill="#CBD5E1" font-family="Arial, Helvetica, sans-serif" font-size="22">Flights + hotels + matches</text>
  </g>
</svg>
