<svg width="1600" height="900" viewBox="0 0 1600 900" fill="none" xmlns="http://www.w3.org/2000/svg">
  <defs>
    <linearGradient id="bg" x1="160" y1="80" x2="1420" y2="820" gradientUnits="userSpaceOnUse">
      <stop stop-color="#F5EFE6"/>
      <stop offset="0.45" stop-color="#E7EEF5"/>
      <stop offset="1" stop-color="#D7E2E0"/>
    </linearGradient>
    <linearGradient id="card" x1="280" y1="180" x2="1180" y2="720" gradientUnits="userSpaceOnUse">
      <stop stop-color="#FFFFFF" stop-opacity="0.92"/>
      <stop offset="1" stop-color="#F4F7FA" stop-opacity="0.96"/>
    </linearGradient>
    <linearGradient id="passport" x1="1020" y1="230" x2="1280" y2="560" gradientUnits="userSpaceOnUse">
      <stop stop-color="#2B4C6F"/>
      <stop offset="1" stop-color="#17324C"/>
    </linearGradient>
    <filter id="shadow" x="176" y="106" width="1248" height="688" filterUnits="userSpaceOnUse" color-interpolation-filters="sRGB">
      <feFlood flood-opacity="0" result="BackgroundImageFix"/>
      <feColorMatrix in="SourceAlpha" type="matrix" values="0 0 0 0 0 0 0 0 0 0 0 0 0 0 0 0 0 0 127 0" result="hardAlpha"/>
      <feOffset dy="18"/>
      <feGaussianBlur stdDeviation="28"/>
      <feColorMatrix type="matrix" values="0 0 0 0 0.164706 0 0 0 0 0.243137 0 0 0 0 0.32549 0 0 0 0.14 0"/>
      <feBlend mode="normal" in2="BackgroundImageFix" result="effect1_dropShadow_0_1"/>
      <feBlend mode="normal" in="SourceGraphic" in2="effect1_dropShadow_0_1" result="shape"/>
    </filter>
  </defs>
  <rect width="1600" height="900" fill="url(#bg)"/>
  <circle cx="1320" cy="140" r="170" fill="#FFF7EC" fill-opacity="0.72"/>
  <circle cx="260" cy="750" r="210" fill="#EAF2F0" fill-opacity="0.85"/>
  <g filter="url(#shadow)">
    <rect x="232" y="160" width="1136" height="580" rx="40" fill="url(#card)"/>
  </g>
  <path d="M410 591C520 454 622 388 740 366C853 345 959 377 1118 299" stroke="#D16D52" stroke-width="10" stroke-linecap="round" stroke-dasharray="16 18"/>
  <path d="M1109 287L1152 286L1130 324" fill="#D16D52"/>
  <rect x="312" y="244" width="388" height="236" rx="30" fill="#F7FAFD" stroke="#C9D6E3" stroke-width="3"/>
  <rect x="346" y="282" width="148" height="164" rx="22" fill="#E2ECF5"/>
  <path d="M382 426H458" stroke="#6A8097" stroke-width="8" stroke-linecap="round"/>
  <path d="M382 394H458" stroke="#6A8097" stroke-width="8" stroke-linecap="round"/>
  <path d="M382 362H458" stroke="#6A8097" stroke-width="8" stroke-linecap="round"/>
  <circle cx="421" cy="326" r="28" fill="#8AA4BC"/>
  <path d="M534 308H654" stroke="#9AAEC2" stroke-width="10" stroke-linecap="round"/>
  <path d="M534 350H636" stroke="#B5C3D0" stroke-width="10" stroke-linecap="round"/>
  <path d="M534 392H616" stroke="#C8D3DC" stroke-width="10" stroke-linecap="round"/>
  <path d="M534 434H604" stroke="#D6DFE6" stroke-width="10" stroke-linecap="round"/>
  <rect x="780" y="232" width="170" height="86" rx="22" fill="#E9F1F7" stroke="#CAD6E0" stroke-width="3"/>
  <path d="M822 275H907" stroke="#4A6988" stroke-width="9" stroke-linecap="round"/>
  <path d="M890 254L919 275L890 296" stroke="#4A6988" stroke-width="9" stroke-linecap="round" stroke-linejoin="round"/>
  <rect x="780" y="346" width="186" height="86" rx="22" fill="#EEF4EA" stroke="#CED8C7" stroke-width="3"/>
  <path d="M821 389H926" stroke="#607A59" stroke-width="9" stroke-linecap="round"/>
  <circle cx="914" cy="389" r="14" fill="#607A59"/>
  <rect x="1006" y="214" width="270" height="352" rx="34" fill="url(#passport)"/>
  <rect x="1034" y="244" width="214" height="292" rx="26" fill="none" stroke="#87A5C5" stroke-opacity="0.34" stroke-width="3"/>
  <text x="1141" y="306" text-anchor="middle" fill="#C8D9EA" font-size="28" font-family="Georgia, serif" letter-spacing="4">PASSPORT</text>
  <circle cx="1141" cy="396" r="74" stroke="#D8E4EF" stroke-opacity="0.84" stroke-width="6"/>
  <path d="M1072 396H1210" stroke="#D8E4EF" stroke-opacity="0.84" stroke-width="5"/>
  <path d="M1141 327C1167 349 1180 372 1180 396C1180 420 1167 443 1141 465C1114 443 1102 420 1102 396C1102 372 1114 349 1141 327Z" stroke="#D8E4EF" stroke-opacity="0.84" stroke-width="5"/>
  <path d="M1075 362C1098 376 1110 387 1110 396C1110 405 1098 416 1075 430" stroke="#D8E4EF" stroke-opacity="0.7" stroke-width="4"/>
  <path d="M1207 362C1184 376 1172 387 1172 396C1172 405 1184 416 1207 430" stroke="#D8E4EF" stroke-opacity="0.7" stroke-width="4"/>
  <path d="M1070 486H1212" stroke="#8CA8C5" stroke-width="5" stroke-linecap="round"/>
  <path d="M1088 516H1194" stroke="#7594B2" stroke-width="5" stroke-linecap="round"/>
  <rect x="332" y="548" width="502" height="128" rx="28" fill="#FFFFFF" fill-opacity="0.72"/>
  <text x="384" y="603" fill="#35506A" font-size="34" font-family="Arial, sans-serif" font-weight="700">Europe to USA</text>
  <text x="384" y="646" fill="#6A7C8D" font-size="24" font-family="Arial, sans-serif">ESTA, passport, domestic connection, first-night stay</text>
</svg>
