<svg width="1600" height="900" viewBox="0 0 1600 900" fill="none" xmlns="http://www.w3.org/2000/svg">
  <rect width="1600" height="900" fill="#F7F4EE"/>
  <rect width="1600" height="900" fill="url(#bg)"/>
  <circle cx="1328" cy="136" r="126" fill="#FDBA74" fill-opacity="0.34"/>
  <circle cx="235" cy="172" r="88" fill="#93C5FD" fill-opacity="0.4"/>
  <path d="M0 682C165 632 332 622 499 650C682 681 836 760 1014 754C1188 748 1358 650 1600 666V900H0V682Z" fill="#DDE7EC"/>
  <path d="M0 752C162 722 334 726 512 754C670 779 844 835 1028 826C1200 818 1368 770 1600 786V900H0V752Z" fill="#C4D0D7"/>
  <text x="88" y="108" fill="#0F172A" font-family="Georgia, serif" font-size="58" font-weight="700">First Orlando Stay From Europe</text>
  <text x="90" y="156" fill="#334155" font-family="Arial, Helvetica, sans-serif" font-size="28">International Drive vs Lake Buena Vista vs airport hotel</text>
  <g filter="url(#cardShadow)">
    <rect x="96" y="214" width="414" height="430" rx="32" fill="#FFFCF7"/>
    <text x="132" y="284" fill="#0F172A" font-family="Arial, Helvetica, sans-serif" font-size="38" font-weight="700">INTERNATIONAL</text>
    <text x="132" y="326" fill="#0F172A" font-family="Arial, Helvetica, sans-serif" font-size="38" font-weight="700">DRIVE</text>
    <text x="132" y="370" fill="#64748B" font-family="Arial, Helvetica, sans-serif" font-size="22">Good for Universal, dining, lighter car use</text>
    <rect x="132" y="414" width="214" height="16" rx="8" fill="#2563EB"/>
    <rect x="132" y="458" width="286" height="16" rx="8" fill="#059669"/>
    <rect x="132" y="502" width="244" height="16" rx="8" fill="#F59E0B"/>
    <text x="132" y="446" fill="#0F172A" font-family="Arial, Helvetica, sans-serif" font-size="20">Walkable hotel and food mix</text>
    <text x="132" y="490" fill="#0F172A" font-family="Arial, Helvetica, sans-serif" font-size="20">Flexible mid-budget inventory</text>
    <text x="132" y="534" fill="#0F172A" font-family="Arial, Helvetica, sans-serif" font-size="20">More park-drive friction for Disney-only stays</text>
    <text x="132" y="602" fill="#1D4ED8" font-family="Arial, Helvetica, sans-serif" font-size="44" font-weight="700">Choice Density</text>
  </g>
  <g filter="url(#cardShadow)">
    <rect x="590" y="186" width="420" height="458" rx="32" fill="#FFFDFB"/>
    <text x="626" y="256" fill="#0F172A" font-family="Arial, Helvetica, sans-serif" font-size="38" font-weight="700">LAKE BUENA</text>
    <text x="626" y="298" fill="#0F172A" font-family="Arial, Helvetica, sans-serif" font-size="38" font-weight="700">VISTA</text>
    <text x="626" y="342" fill="#64748B" font-family="Arial, Helvetica, sans-serif" font-size="22">Best fit for Disney rhythm and family flow</text>
    <rect x="626" y="386" width="248" height="16" rx="8" fill="#DC2626"/>
    <rect x="626" y="430" width="300" height="16" rx="8" fill="#16A34A"/>
    <rect x="626" y="474" width="268" height="16" rx="8" fill="#2563EB"/>
    <text x="626" y="418" fill="#0F172A" font-family="Arial, Helvetica, sans-serif" font-size="20">Shorter Disney commute</text>
    <text x="626" y="462" fill="#0F172A" font-family="Arial, Helvetica, sans-serif" font-size="20">Cleaner for early park mornings</text>
    <text x="626" y="506" fill="#0F172A" font-family="Arial, Helvetica, sans-serif" font-size="20">Check resort fee and parking logic</text>
    <text x="626" y="580" fill="#047857" font-family="Arial, Helvetica, sans-serif" font-size="46" font-weight="700">Park Efficiency</text>
  </g>
  <g filter="url(#cardShadow)">
    <rect x="1088" y="226" width="392" height="392" rx="32" fill="#FFF8F1"/>
    <text x="1124" y="296" fill="#0F172A" font-family="Arial, Helvetica, sans-serif" font-size="38" font-weight="700">AIRPORT</text>
    <text x="1124" y="338" fill="#0F172A" font-family="Arial, Helvetica, sans-serif" font-size="38" font-weight="700">HOTEL</text>
    <text x="1124" y="382" fill="#64748B" font-family="Arial, Helvetica, sans-serif" font-size="22">Strong for late arrivals and easy night one</text>
    <rect x="1124" y="426" width="228" height="16" rx="8" fill="#C2410C"/>
    <rect x="1124" y="470" width="260" height="16" rx="8" fill="#1D4ED8"/>
    <text x="1124" y="458" fill="#0F172A" font-family="Arial, Helvetica, sans-serif" font-size="20">Protects tired first-night arrivals</text>
    <text x="1124" y="502" fill="#0F172A" font-family="Arial, Helvetica, sans-serif" font-size="20">Move to park area fresh next morning</text>
    <text x="1124" y="568" fill="#B45309" font-family="Arial, Helvetica, sans-serif" font-size="44" font-weight="700">Arrival Control</text>
  </g>
  <path d="M262 724C426 648 590 634 744 676C842 703 936 756 1022 814" stroke="#7C8FA0" stroke-width="18" stroke-linecap="round"/>
  <path d="M1028 814C1094 750 1172 700 1264 678C1344 659 1418 664 1492 694" stroke="#7C8FA0" stroke-width="18" stroke-linecap="round"/>
  <path d="M276 684C402 548 560 468 726 458C886 448 1028 498 1186 592" stroke="#D97706" stroke-width="8" stroke-linecap="round" stroke-dasharray="4 18"/>
  <circle cx="276" cy="684" r="13" fill="#D97706"/>
  <circle cx="734" cy="458" r="13" fill="#D97706"/>
  <circle cx="1492" cy="694" r="13" fill="#D97706"/>
  <path d="M718 458L734 418L752 458H718Z" fill="#DC2626"/>
  <rect x="198" y="756" width="76" height="84" fill="#0F172A"/>
  <rect x="286" y="704" width="86" height="136" fill="#1E293B"/>
  <rect x="384" y="632" width="94" height="208" fill="#334155"/>
  <rect x="1032" y="726" width="68" height="114" fill="#0F172A"/>
  <rect x="1112" y="666" width="82" height="174" fill="#1E293B"/>
  <rect x="1206" y="610" width="98" height="230" fill="#0F172A"/>
  <rect x="1316" y="654" width="78" height="186" fill="#334155"/>
  <defs>
    <linearGradient id="bg" x1="184" y1="54" x2="1368" y2="842" gradientUnits="userSpaceOnUse">
      <stop stop-color="#E6F0FF"/>
      <stop offset="0.5" stop-color="#F8FAFC"/>
      <stop offset="1" stop-color="#EFE4D5"/>
    </linearGradient>
    <filter id="cardShadow" x="72" y="172" width="1436" height="500" filterUnits="userSpaceOnUse" color-interpolation-filters="sRGB">
      <feFlood flood-opacity="0" result="BackgroundImageFix"/>
      <feColorMatrix in="SourceAlpha" type="matrix" values="0 0 0 0 0 0 0 0 0 0 0 0 0 0 0 0 0 0 127 0" result="hardAlpha"/>
      <feOffset dx="6" dy="12"/>
      <feGaussianBlur stdDeviation="14"/>
      <feComposite in2="hardAlpha" operator="out"/>
      <feColorMatrix type="matrix" values="0 0 0 0 0.0588235 0 0 0 0 0.0901961 0 0 0 0 0.156863 0 0 0 0.16 0"/>
      <feBlend mode="normal" in2="BackgroundImageFix" result="effect1_dropShadow_1_1"/>
      <feBlend mode="normal" in="SourceGraphic" in2="effect1_dropShadow_1_1" result="shape"/>
    </filter>
  </defs>
</svg>
