<svg width="1600" height="900" viewBox="0 0 1600 900" fill="none" xmlns="http://www.w3.org/2000/svg">
  <rect width="1600" height="900" fill="#F4EFE7"/>
  <rect width="1600" height="900" fill="url(#sky)"/>
  <circle cx="1298" cy="142" r="160" fill="#F0B56B" fill-opacity="0.32"/>
  <circle cx="234" cy="742" r="250" fill="#155E75" fill-opacity="0.14"/>
  <path d="M0 646C170 610 350 596 562 628C744 655 926 738 1118 734C1306 730 1456 666 1600 624V900H0V646Z" fill="url(#ground)"/>

  <g filter="url(#cardShadow)">
    <rect x="94" y="94" width="676" height="304" rx="34" fill="#FFFDF9"/>
    <rect x="94" y="94" width="676" height="304" rx="34" stroke="#EADBC6"/>
    <text x="144" y="164" fill="#213547" font-size="40" font-family="Georgia, serif" font-weight="700">Los Angeles, Miami, or Boston?</text>
    <text x="144" y="214" fill="#5E6E77" font-size="27" font-family="Arial, sans-serif">Europe to USA World Cup 2026 trip planning</text>
    <rect x="144" y="256" width="186" height="56" rx="18" fill="#0F766E"/>
    <text x="177" y="292" fill="#ECFDF5" font-size="23" font-family="Arial, sans-serif" font-weight="700">Flight Friction</text>
    <rect x="348" y="256" width="174" height="56" rx="18" fill="#C96C36"/>
    <text x="383" y="292" fill="#FFF8F3" font-size="23" font-family="Arial, sans-serif" font-weight="700">Hotel Pressure</text>
    <rect x="540" y="256" width="164" height="56" rx="18" fill="#334155"/>
    <text x="580" y="292" fill="#F8FAFC" font-size="23" font-family="Arial, sans-serif" font-weight="700">Jet Lag</text>
    <text x="144" y="354" fill="#213547" font-size="24" font-family="Arial, sans-serif">Pick the host city that protects your total trip value.</text>
  </g>

  <path d="M598 476C720 418 842 418 954 454C1060 488 1182 550 1368 522" stroke="url(#route)" stroke-width="10" stroke-linecap="round" stroke-dasharray="16 18"/>
  <g filter="url(#planeShadow)">
    <path d="M916 452L956 428L1008 434L978 460L1035 488L1020 504L962 486L946 534L924 528L929 478L890 482L882 464L916 452Z" fill="#FFFDF9"/>
  </g>

  <g filter="url(#panelShadow)">
    <rect x="952" y="112" width="484" height="260" rx="30" fill="#FFF8EE"/>
    <rect x="952" y="112" width="484" height="260" rx="30" stroke="#E7D0B0"/>
    <text x="1002" y="172" fill="#9A4D22" font-size="30" font-family="Georgia, serif" font-weight="700">Best Fit by Trip Type</text>
    <text x="1002" y="222" fill="#7B4B30" font-size="22" font-family="Arial, sans-serif">Los Angeles: iconic long-stay trip</text>
    <text x="1002" y="260" fill="#7B4B30" font-size="22" font-family="Arial, sans-serif">Miami: match plus vacation energy</text>
    <text x="1002" y="298" fill="#7B4B30" font-size="22" font-family="Arial, sans-serif">Boston: compact short-trip logic</text>
    <text x="1002" y="336" fill="#7B4B30" font-size="22" font-family="Arial, sans-serif">Think in nights, not airfare alone.</text>
  </g>

  <g filter="url(#panelShadow)">
    <rect x="1018" y="470" width="434" height="224" rx="30" fill="#F6FBFC"/>
    <rect x="1018" y="470" width="434" height="224" rx="30" stroke="#C8E0E3"/>
    <text x="1064" y="532" fill="#0F766E" font-size="30" font-family="Georgia, serif" font-weight="700">Cleaner Total Value</text>
    <text x="1064" y="578" fill="#36525A" font-size="21" font-family="Arial, sans-serif">Boston often wins short breaks.</text>
    <text x="1064" y="612" fill="#36525A" font-size="21" font-family="Arial, sans-serif">Miami wins when the trip needs</text>
    <text x="1064" y="646" fill="#36525A" font-size="21" font-family="Arial, sans-serif">sun, space, and a holiday rhythm.</text>
  </g>

  <g filter="url(#cardShadow)">
    <rect x="158" y="498" width="610" height="214" rx="30" fill="#172E40"/>
    <rect x="158" y="498" width="610" height="214" rx="30" stroke="#37556A"/>
    <rect x="210" y="546" width="152" height="112" rx="22" fill="#E49463"/>
    <text x="225" y="592" fill="#FFF8F3" font-size="28" font-family="Georgia, serif" font-weight="700">Los Angeles</text>
    <text x="234" y="626" fill="#FFF8F3" font-size="18" font-family="Arial, sans-serif">Long flight, big payoff</text>
    <rect x="388" y="546" width="152" height="112" rx="22" fill="#F1C27D"/>
    <text x="426" y="592" fill="#6B481A" font-size="28" font-family="Georgia, serif" font-weight="700">Miami</text>
    <text x="410" y="626" fill="#6B481A" font-size="18" font-family="Arial, sans-serif">Beach plus football</text>
    <rect x="566" y="546" width="152" height="112" rx="22" fill="#7AA7B1"/>
    <text x="605" y="592" fill="#F8FBFC" font-size="28" font-family="Georgia, serif" font-weight="700">Boston</text>
    <text x="585" y="626" fill="#EAF3F5" font-size="18" font-family="Arial, sans-serif">Shortest clean break</text>
  </g>

  <g opacity="0.94">
    <rect x="408" y="742" width="772" height="90" rx="28" fill="#FFFDF9"/>
    <text x="458" y="797" fill="#213547" font-size="28" font-family="Georgia, serif" font-weight="700">The best host city is the one that protects your sleep, budget, and match day.</text>
  </g>

  <defs>
    <linearGradient id="sky" x1="110" y1="60" x2="1440" y2="828" gradientUnits="userSpaceOnUse">
      <stop stop-color="#F9F2E8"/>
      <stop offset="0.5" stop-color="#E6F0EB"/>
      <stop offset="1" stop-color="#D9E6E9"/>
    </linearGradient>
    <linearGradient id="ground" x1="120" y1="620" x2="1410" y2="830" gradientUnits="userSpaceOnUse">
      <stop stop-color="#1F415A"/>
      <stop offset="0.55" stop-color="#145E68"/>
      <stop offset="1" stop-color="#3D5560"/>
    </linearGradient>
    <linearGradient id="route" x1="598" y1="476" x2="1368" y2="522" gradientUnits="userSpaceOnUse">
      <stop stop-color="#D07C47"/>
      <stop offset="0.48" stop-color="#E2C36A"/>
      <stop offset="1" stop-color="#4A8E99"/>
    </linearGradient>
    <filter id="cardShadow" x="70" y="82" width="748" height="660" filterUnits="userSpaceOnUse" color-interpolation-filters="sRGB">
      <feFlood flood-opacity="0" result="BackgroundImageFix"/>
      <feColorMatrix in="SourceAlpha" type="matrix" values="0 0 0 0 0 0 0 0 0 0 0 0 0 0 0 0 0 0 127 0" result="hardAlpha"/>
      <feOffset dx="8" dy="14"/>
      <feGaussianBlur stdDeviation="14"/>
      <feComposite in2="hardAlpha" operator="out"/>
      <feColorMatrix type="matrix" values="0 0 0 0 0.145098 0 0 0 0 0.219608 0 0 0 0 0.27451 0 0 0 0.14 0"/>
      <feBlend mode="normal" in2="BackgroundImageFix" result="effect1_dropShadow_1_1"/>
      <feBlend mode="normal" in="SourceGraphic" in2="effect1_dropShadow_1_1" result="shape"/>
    </filter>
    <filter id="panelShadow" x="928" y="94" width="550" height="630" filterUnits="userSpaceOnUse" color-interpolation-filters="sRGB">
      <feFlood flood-opacity="0" result="BackgroundImageFix"/>
      <feColorMatrix in="SourceAlpha" type="matrix" values="0 0 0 0 0 0 0 0 0 0 0 0 0 0 0 0 0 0 127 0" result="hardAlpha"/>
      <feOffset dx="8" dy="14"/>
      <feGaussianBlur stdDeviation="16"/>
      <feComposite in2="hardAlpha" operator="out"/>
      <feColorMatrix type="matrix" values="0 0 0 0 0.168627 0 0 0 0 0.223529 0 0 0 0 0.258824 0 0 0 0.12 0"/>
      <feBlend mode="normal" in2="BackgroundImageFix" result="effect1_dropShadow_1_1"/>
      <feBlend mode="normal" in="SourceGraphic" in2="effect1_dropShadow_1_1" result="shape"/>
    </filter>
    <filter id="planeShadow" x="868" y="416" width="190" height="138" filterUnits="userSpaceOnUse" color-interpolation-filters="sRGB">
      <feFlood flood-opacity="0" result="BackgroundImageFix"/>
      <feColorMatrix in="SourceAlpha" type="matrix" values="0 0 0 0 0 0 0 0 0 0 0 0 0 0 0 0 0 0 127 0" result="hardAlpha"/>
      <feOffset dx="5" dy="7"/>
      <feGaussianBlur stdDeviation="7"/>
      <feComposite in2="hardAlpha" operator="out"/>
      <feColorMatrix type="matrix" values="0 0 0 0 0.109804 0 0 0 0 0.156863 0 0 0 0 0.188235 0 0 0 0.22 0"/>
      <feBlend mode="normal" in2="BackgroundImageFix" result="effect1_dropShadow_1_1"/>
      <feBlend mode="normal" in="SourceGraphic" in2="effect1_dropShadow_1_1" result="shape"/>
    </filter>
  </defs>
</svg>
