<svg width="1600" height="900" viewBox="0 0 1600 900" fill="none" xmlns="http://www.w3.org/2000/svg">
  <defs>
    <linearGradient id="bg" x1="160" y1="100" x2="1458" y2="828" gradientUnits="userSpaceOnUse">
      <stop offset="0" stop-color="#FFF7ED"/>
      <stop offset="0.46" stop-color="#F8FAFC"/>
      <stop offset="1" stop-color="#DBEAFE"/>
    </linearGradient>
    <linearGradient id="panel" x1="0" y1="0" x2="1" y2="1">
      <stop offset="0" stop-color="#FFFFFF"/>
      <stop offset="1" stop-color="#F8FAFC"/>
    </linearGradient>
    <linearGradient id="route" x1="0" y1="0" x2="1" y2="1">
      <stop offset="0" stop-color="#0F766E"/>
      <stop offset="0.55" stop-color="#2563EB"/>
      <stop offset="1" stop-color="#EA580C"/>
    </linearGradient>
    <filter id="shadow" x="-20%" y="-20%" width="140%" height="140%">
      <feDropShadow dx="0" dy="18" stdDeviation="20" flood-color="#0F172A" flood-opacity="0.14"/>
    </filter>
  </defs>

  <rect width="1600" height="900" fill="url(#bg)"/>
  <circle cx="236" cy="728" r="208" fill="#E0F2FE" opacity="0.86"/>
  <circle cx="1334" cy="166" r="172" fill="#FFEDD5" opacity="0.9"/>
  <circle cx="1328" cy="736" r="148" fill="#DCFCE7" opacity="0.8"/>

  <g opacity="0.16">
    <path d="M220 360C356 256 516 214 682 240C858 268 986 372 1128 374C1228 376 1312 338 1384 286" stroke="#334155" stroke-width="10" stroke-linecap="round"/>
    <path d="M266 430C402 350 558 326 700 348C838 368 948 436 1074 452C1184 466 1274 450 1360 412" stroke="#334155" stroke-width="10" stroke-linecap="round"/>
  </g>

  <g filter="url(#shadow)">
    <rect x="112" y="94" width="688" height="252" rx="36" fill="url(#panel)"/>
  </g>
  <text x="160" y="176" fill="#0F172A" font-family="Georgia, 'Times New Roman', serif" font-size="56" font-weight="700">
    Fall 2026
  </text>
  <text x="160" y="238" fill="#0F172A" font-family="Georgia, 'Times New Roman', serif" font-size="56" font-weight="700">
    Europe to USA City Balance
  </text>
  <text x="160" y="292" fill="#475569" font-family="Arial, Helvetica, sans-serif" font-size="28">
    New York, Boston and Miami through flights, hotels and arrival flow
  </text>

  <g>
    <path d="M312 508C430 444 560 422 696 438C818 452 910 500 1010 518C1118 538 1202 520 1310 448" stroke="url(#route)" stroke-width="12" stroke-linecap="round" stroke-dasharray="16 18"/>
    <circle cx="312" cy="508" r="14" fill="#0F766E"/>
    <circle cx="1310" cy="448" r="14" fill="#EA580C"/>
    <path d="M808 448L836 460L824 480L840 500L814 508L804 490L776 494L786 474L760 460L786 452L784 426L804 442L830 432L826 450L850 452L808 448Z" fill="#0F172A"/>
  </g>

  <g filter="url(#shadow)">
    <rect x="154" y="584" width="272" height="176" rx="30" fill="url(#panel)"/>
    <rect x="486" y="434" width="272" height="176" rx="30" fill="url(#panel)"/>
    <rect x="820" y="586" width="272" height="176" rx="30" fill="url(#panel)"/>
    <rect x="1126" y="360" width="300" height="196" rx="30" fill="url(#panel)"/>
  </g>

  <g>
    <text x="190" y="638" fill="#0F172A" font-family="Arial, Helvetica, sans-serif" font-size="36" font-weight="700">New York</text>
    <text x="190" y="684" fill="#475569" font-family="Arial, Helvetica, sans-serif" font-size="24">Most familiar first stop</text>
    <rect x="190" y="710" width="196" height="14" rx="7" fill="#2563EB"/>
    <rect x="190" y="736" width="144" height="12" rx="6" fill="#CBD5E1"/>
  </g>

  <g>
    <text x="522" y="488" fill="#0F172A" font-family="Arial, Helvetica, sans-serif" font-size="36" font-weight="700">Boston</text>
    <text x="522" y="534" fill="#475569" font-family="Arial, Helvetica, sans-serif" font-size="24">Compact, but hotel-heavy</text>
    <rect x="522" y="560" width="202" height="14" rx="7" fill="#0F766E"/>
    <rect x="522" y="586" width="152" height="12" rx="6" fill="#CBD5E1"/>
  </g>

  <g>
    <text x="856" y="640" fill="#0F172A" font-family="Arial, Helvetica, sans-serif" font-size="36" font-weight="700">Miami</text>
    <text x="856" y="686" fill="#475569" font-family="Arial, Helvetica, sans-serif" font-size="24">Warmer, looser city rhythm</text>
    <rect x="856" y="712" width="214" height="14" rx="7" fill="#EA580C"/>
    <rect x="856" y="738" width="160" height="12" rx="6" fill="#CBD5E1"/>
  </g>

  <g opacity="0.98">
    <rect x="1172" y="126" width="220" height="110" rx="24" fill="#0F172A"/>
    <text x="1212" y="172" fill="#F8FAFC" font-family="Arial, Helvetica, sans-serif" font-size="24" font-weight="700">2026 planning</text>
    <text x="1212" y="208" fill="#CBD5E1" font-family="Arial, Helvetica, sans-serif" font-size="22">ESTA first, hotel logic second</text>
  </g>

  <g>
    <text x="1160" y="428" fill="#0F172A" font-family="Arial, Helvetica, sans-serif" font-size="34" font-weight="700">Arrival signal</text>
    <text x="1160" y="472" fill="#475569" font-family="Arial, Helvetica, sans-serif" font-size="24">Repeat VWP travelers may use MPC</text>
    <text x="1160" y="510" fill="#0F766E" font-family="Arial, Helvetica, sans-serif" font-size="26" font-weight="700">Short trips reward cleaner first nights</text>
  </g>
</svg>
