<svg width="1600" height="900" viewBox="0 0 1600 900" fill="none" xmlns="http://www.w3.org/2000/svg">
  <defs>
    <linearGradient id="bg" x1="208" y1="82" x2="1412" y2="840" gradientUnits="userSpaceOnUse">
      <stop offset="0" stop-color="#F8F3EA"/>
      <stop offset="0.45" stop-color="#EEF5F4"/>
      <stop offset="1" stop-color="#E6EDF7"/>
    </linearGradient>
    <linearGradient id="card" x1="0" y1="0" x2="1" y2="1">
      <stop offset="0" stop-color="#FFFFFF"/>
      <stop offset="1" stop-color="#F7FAFC"/>
    </linearGradient>
    <linearGradient id="accent" x1="0" y1="0" x2="1" y2="1">
      <stop offset="0" stop-color="#C2410C"/>
      <stop offset="0.5" stop-color="#0F766E"/>
      <stop offset="1" stop-color="#2563EB"/>
    </linearGradient>
    <filter id="shadow" x="-20%" y="-20%" width="140%" height="140%">
      <feDropShadow dx="0" dy="18" stdDeviation="20" flood-color="#0F172A" flood-opacity="0.12"/>
    </filter>
  </defs>

  <rect width="1600" height="900" fill="url(#bg)"/>
  <circle cx="1308" cy="156" r="154" fill="#FFF7ED" opacity="0.95"/>
  <circle cx="1320" cy="748" r="152" fill="#DBEAFE" opacity="0.74"/>
  <circle cx="252" cy="744" r="228" fill="#DCFCE7" opacity="0.6"/>

  <g opacity="0.16">
    <path d="M154 238C310 196 480 188 650 214C840 244 1020 318 1226 312C1310 308 1390 290 1462 258" stroke="#334155" stroke-width="12" stroke-linecap="round"/>
    <path d="M148 296C316 264 510 266 674 302C846 340 1000 402 1186 404C1286 404 1384 386 1452 356" stroke="#334155" stroke-width="10" stroke-linecap="round"/>
  </g>

  <g filter="url(#shadow)">
    <rect x="104" y="92" width="732" height="270" rx="36" fill="url(#card)"/>
  </g>

  <text x="158" y="170" fill="#0F172A" font-family="Georgia, 'Times New Roman', serif" font-size="54" font-weight="700">
    ETIAS not live yet
  </text>
  <text x="158" y="232" fill="#0F172A" font-family="Georgia, 'Times New Roman', serif" font-size="54" font-weight="700">
    EES changes the first night
  </text>
  <text x="158" y="286" fill="#475569" font-family="Arial, Helvetica, sans-serif" font-size="28">
    Choose the first hotel for arrival flow, not only for price
  </text>

  <g filter="url(#shadow)">
    <rect x="1040" y="116" width="364" height="196" rx="32" fill="url(#card)"/>
  </g>
  <text x="1082" y="178" fill="#0F172A" font-family="Arial, Helvetica, sans-serif" font-size="26" font-weight="700">
    June 7, 2026
  </text>
  <text x="1082" y="222" fill="#475569" font-family="Arial, Helvetica, sans-serif" font-size="24">
    ETIAS: not started
  </text>
  <text x="1082" y="258" fill="#0F766E" font-family="Arial, Helvetica, sans-serif" font-size="24" font-weight="700">
    EES: fully active
  </text>

  <g>
    <path d="M260 540C390 460 528 428 684 444C836 460 970 528 1108 526C1196 524 1284 492 1360 438" stroke="url(#accent)" stroke-width="12" stroke-linecap="round" stroke-dasharray="16 18"/>
    <circle cx="260" cy="540" r="16" fill="#C2410C"/>
    <circle cx="1360" cy="438" r="16" fill="#2563EB"/>
  </g>

  <g filter="url(#shadow)">
    <rect x="156" y="602" width="290" height="180" rx="30" fill="url(#card)"/>
    <rect x="520" y="474" width="280" height="180" rx="30" fill="url(#card)"/>
    <rect x="874" y="604" width="286" height="180" rx="30" fill="url(#card)"/>
    <rect x="1182" y="514" width="248" height="164" rx="30" fill="url(#card)"/>
  </g>

  <g>
    <text x="192" y="656" fill="#0F172A" font-family="Arial, Helvetica, sans-serif" font-size="34" font-weight="700">Airport link</text>
    <text x="192" y="702" fill="#475569" font-family="Arial, Helvetica, sans-serif" font-size="24">Direct rail or easy taxi flow</text>
    <rect x="192" y="728" width="184" height="14" rx="7" fill="#C2410C"/>
  </g>

  <g>
    <text x="556" y="528" fill="#0F172A" font-family="Arial, Helvetica, sans-serif" font-size="34" font-weight="700">Late check-in</text>
    <text x="556" y="574" fill="#475569" font-family="Arial, Helvetica, sans-serif" font-size="24">Clear arrival instructions matter</text>
    <rect x="556" y="600" width="196" height="14" rx="7" fill="#0F766E"/>
  </g>

  <g>
    <text x="910" y="658" fill="#0F172A" font-family="Arial, Helvetica, sans-serif" font-size="34" font-weight="700">Next morning</text>
    <text x="910" y="704" fill="#475569" font-family="Arial, Helvetica, sans-serif" font-size="24">Start the city without friction</text>
    <rect x="910" y="730" width="190" height="14" rx="7" fill="#2563EB"/>
  </g>

  <g>
    <rect x="1214" y="546" width="184" height="54" rx="27" fill="#0F172A"/>
    <text x="1246" y="581" fill="#F8FAFC" font-family="Arial, Helvetica, sans-serif" font-size="24" font-weight="700">First-night logic</text>
    <text x="1214" y="636" fill="#475569" font-family="Arial, Helvetica, sans-serif" font-size="22">Travel + stay</text>
  </g>

  <g opacity="0.92">
    <path d="M712 410C712 386.804 730.804 368 754 368H938C961.196 368 980 386.804 980 410V514C980 537.196 961.196 556 938 556H754C730.804 556 712 537.196 712 514V410Z" fill="#0F172A"/>
    <rect x="744" y="400" width="204" height="34" rx="10" fill="#F8FAFC"/>
    <rect x="744" y="448" width="126" height="16" rx="8" fill="#94A3B8"/>
    <rect x="744" y="476" width="164" height="16" rx="8" fill="#94A3B8"/>
    <circle cx="920" cy="480" r="34" fill="#0F766E"/>
    <path d="M904 480L916 492L938 468" stroke="#F8FAFC" stroke-width="8" stroke-linecap="round" stroke-linejoin="round"/>
  </g>
</svg>
