<svg width="1600" height="900" viewBox="0 0 1600 900" fill="none" xmlns="http://www.w3.org/2000/svg">
  <rect width="1600" height="900" fill="#F5EFE7"/>
  <rect width="1600" height="900" fill="url(#bg)"/>
  <circle cx="1290" cy="150" r="88" fill="#FFD386" fill-opacity="0.88"/>
  <circle cx="238" cy="162" r="66" fill="#CFE8F0" fill-opacity="0.82"/>
  <path d="M0 684C148 632 280 622 398 646C514 670 620 730 746 736C874 742 992 688 1098 658C1248 616 1408 628 1600 698V900H0V684Z" fill="#D8D9CC"/>
  <path d="M0 764C164 722 300 718 446 746C590 774 702 830 846 828C1002 826 1128 770 1274 768C1376 766 1488 782 1600 816V900H0V764Z" fill="#B9C2B4"/>
  <text x="86" y="106" fill="#0F172A" font-family="Arial, Helvetica, sans-serif" font-size="60" font-weight="700">Europe to US West Coast Open-Jaw Guide</text>
  <text x="88" y="154" fill="#475569" font-family="Arial, Helvetica, sans-serif" font-size="29">San Francisco arrival, Los Angeles departure</text>

  <rect x="108" y="218" width="458" height="418" rx="34" fill="#FFFCF7" fill-opacity="0.96"/>
  <rect x="594" y="182" width="414" height="454" rx="34" fill="#FFFCF7" fill-opacity="0.97"/>
  <rect x="1042" y="234" width="432" height="402" rx="34" fill="#FFFCF7" fill-opacity="0.96"/>

  <text x="144" y="278" fill="#0F172A" font-family="Arial, Helvetica, sans-serif" font-size="35" font-weight="700">SAN FRANCISCO</text>
  <text x="144" y="326" fill="#475569" font-family="Arial, Helvetica, sans-serif" font-size="23">Cleaner first two nights</text>
  <text x="144" y="364" fill="#475569" font-family="Arial, Helvetica, sans-serif" font-size="23">Better without a car at the start</text>
  <text x="144" y="430" fill="#0F172A" font-family="Arial, Helvetica, sans-serif" font-size="22">+ Compact jet lag recovery</text>
  <text x="144" y="468" fill="#0F172A" font-family="Arial, Helvetica, sans-serif" font-size="22">+ Easy city-first rhythm</text>
  <text x="144" y="536" fill="#1D4ED8" font-family="Arial, Helvetica, sans-serif" font-size="52" font-weight="700">Start Smart</text>

  <text x="628" y="244" fill="#0F172A" font-family="Arial, Helvetica, sans-serif" font-size="35" font-weight="700">COAST DRIVE FLOW</text>
  <text x="628" y="292" fill="#475569" font-family="Arial, Helvetica, sans-serif" font-size="23">Monterey, Big Sur, Santa Barbara</text>
  <text x="628" y="330" fill="#475569" font-family="Arial, Helvetica, sans-serif" font-size="23">Let the car work in the middle segment</text>
  <path d="M664 410C728 366 804 352 874 364C956 378 1028 432 1088 490" stroke="#B45309" stroke-width="12" stroke-linecap="round" stroke-dasharray="18 18"/>
  <circle cx="664" cy="410" r="18" fill="#0F172A"/>
  <circle cx="880" cy="370" r="18" fill="#0F172A"/>
  <circle cx="1088" cy="490" r="18" fill="#0F172A"/>
  <text x="644" y="454" fill="#0F172A" font-family="Arial, Helvetica, sans-serif" font-size="22">SFO</text>
  <text x="850" y="414" fill="#0F172A" font-family="Arial, Helvetica, sans-serif" font-size="22">Highway 1</text>
  <text x="1056" y="534" fill="#0F172A" font-family="Arial, Helvetica, sans-serif" font-size="22">LAX</text>
  <text x="628" y="582" fill="#047857" font-family="Arial, Helvetica, sans-serif" font-size="50" font-weight="700">Route Value</text>

  <text x="1078" y="294" fill="#0F172A" font-family="Arial, Helvetica, sans-serif" font-size="35" font-weight="700">LOS ANGELES</text>
  <text x="1078" y="342" fill="#475569" font-family="Arial, Helvetica, sans-serif" font-size="23">Flexible departure options</text>
  <text x="1078" y="380" fill="#475569" font-family="Arial, Helvetica, sans-serif" font-size="23">Protect the last night well</text>
  <text x="1078" y="446" fill="#0F172A" font-family="Arial, Helvetica, sans-serif" font-size="22">+ Easier final-day structure</text>
  <text x="1078" y="484" fill="#0F172A" font-family="Arial, Helvetica, sans-serif" font-size="22">+ Avoids wasteful backtracking</text>
  <text x="1078" y="552" fill="#7C3AED" font-family="Arial, Helvetica, sans-serif" font-size="48" font-weight="700">Finish Clean</text>

  <path d="M296 694C352 660 434 654 494 678" stroke="#425466" stroke-width="10" stroke-linecap="round"/>
  <path d="M740 708C794 666 878 656 946 688" stroke="#425466" stroke-width="10" stroke-linecap="round"/>
  <path d="M1172 700C1224 666 1306 660 1362 686" stroke="#425466" stroke-width="10" stroke-linecap="round"/>
  <rect x="196" y="706" width="58" height="98" fill="#334155"/>
  <rect x="264" y="638" width="84" height="166" fill="#0F172A"/>
  <rect x="358" y="572" width="86" height="232" fill="#1E293B"/>
  <rect x="456" y="622" width="58" height="182" fill="#334155"/>
  <rect x="672" y="652" width="54" height="152" fill="#334155"/>
  <rect x="736" y="586" width="80" height="218" fill="#0F172A"/>
  <rect x="828" y="530" width="92" height="274" fill="#1E293B"/>
  <rect x="932" y="604" width="56" height="200" fill="#334155"/>
  <rect x="1116" y="668" width="58" height="136" fill="#334155"/>
  <rect x="1186" y="596" width="76" height="208" fill="#0F172A"/>
  <rect x="1274" y="548" width="88" height="256" fill="#1E293B"/>
  <rect x="1374" y="624" width="56" height="180" fill="#334155"/>

  <defs>
    <linearGradient id="bg" x1="204" y1="42" x2="1384" y2="868" gradientUnits="userSpaceOnUse">
      <stop stop-color="#DCEBF0"/>
      <stop offset="0.52" stop-color="#F6EEE1"/>
      <stop offset="1" stop-color="#D8E0CF"/>
    </linearGradient>
  </defs>
</svg>
